<svg width="68" height="67" viewBox="0 0 68 67" fill="none" xmlns="http://www.w3.org/2000/svg">
<circle opacity="0.15" cx="33.9498" cy="33.599" r="33.3209" fill="#4A3AFF"/>
<g filter="url(#filter0_d_1139_83)">
<path fill-rule="evenodd" clip-rule="evenodd" d="M47.6438 36.528C48.2161 36.832 48.6575 37.312 48.9682 37.792C49.5732 38.784 49.5242 40 48.9355 41.072L47.7909 42.992C47.1859 44.016 46.0577 44.656 44.8967 44.656C44.3244 44.656 43.6867 44.496 43.1635 44.176C42.7384 43.904 42.2478 43.808 41.7246 43.808C40.1058 43.808 38.7486 45.136 38.6996 46.72C38.6996 48.56 37.1953 50 35.3149 50H33.0911C31.1943 50 29.69 48.56 29.69 46.72C29.6573 45.136 28.3001 43.808 26.6814 43.808C26.1418 43.808 25.6512 43.904 25.2424 44.176C24.7192 44.496 24.0652 44.656 23.5092 44.656C22.3319 44.656 21.2037 44.016 20.5987 42.992L19.4704 41.072C18.8654 40.032 18.8327 38.784 19.4377 37.792C19.6994 37.312 20.1899 36.832 20.7458 36.528C21.2037 36.304 21.498 35.936 21.776 35.504C22.5935 34.128 22.103 32.32 20.7131 31.504C19.0944 30.592 18.5711 28.56 19.5031 26.976L20.5987 25.088C21.547 23.504 23.5746 22.944 25.2097 23.872C26.6323 24.64 28.48 24.128 29.3139 22.768C29.5755 22.32 29.7227 21.84 29.69 21.36C29.6573 20.736 29.8372 20.144 30.1478 19.664C30.7528 18.672 31.8484 18.032 33.042 18H35.3476C36.5576 18 37.6531 18.672 38.2581 19.664C38.5524 20.144 38.7486 20.736 38.6996 21.36C38.6669 21.84 38.814 22.32 39.0757 22.768C39.9096 24.128 41.7573 24.64 43.1962 23.872C44.815 22.944 46.8589 23.504 47.7909 25.088L48.8865 26.976C49.8348 28.56 49.3116 30.592 47.6765 31.504C46.2866 32.32 45.7961 34.128 46.63 35.504C46.8916 35.936 47.1859 36.304 47.6438 36.528ZM29.5762 34.0156C29.5762 36.5276 31.6528 38.5276 34.2199 38.5276C36.7871 38.5276 38.8147 36.5276 38.8147 34.0156C38.8147 31.5036 36.7871 29.4876 34.2199 29.4876C31.6528 29.4876 29.5762 31.5036 29.5762 34.0156Z" fill="#4A3AFF"/>
</g>
<defs>
<filter id="filter0_d_1139_83" x="9" y="8" width="50.4" height="52" filterUnits="userSpaceOnUse" color-interpolation-filters="sRGB">
<feFlood flood-opacity="0" result="BackgroundImageFix"/>
<feColorMatrix in="SourceAlpha" type="matrix" values="0 0 0 0 0 0 0 0 0 0 0 0 0 0 0 0 0 0 127 0" result="hardAlpha"/>
<feOffset/>
<feGaussianBlur stdDeviation="5"/>
<feComposite in2="hardAlpha" operator="out"/>
<feColorMatrix type="matrix" values="0 0 0 0 0.398667 0 0 0 0 0.417387 0 0 0 0 0.866667 0 0 0 0.38 0"/>
<feBlend mode="normal" in2="BackgroundImageFix" result="effect1_dropShadow_1139_83"/>
<feBlend mode="normal" in="SourceGraphic" in2="effect1_dropShadow_1139_83" result="shape"/>
</filter>
</defs>
</svg>
