<svg width="16" height="12" viewBox="0 0 16 12" fill="none" xmlns="http://www.w3.org/2000/svg">
<path d="M10.8 0C11.4625 0 12 0.503672 12 1.125V4.5H13V2.8125C13 2.50078 13.2675 2.25 13.6 2.25C13.9325 2.25 14.2 2.50078 14.2 2.8125V4.5H14.8C15.4625 4.5 16 5.00391 16 5.625V10.875C16 11.4961 15.4625 12 14.8 12H11.755C11.7675 11.9812 11.78 11.9648 11.79 11.9461C12.08 11.4516 12.07 10.8492 11.7575 10.3687L9.9125 7.5H10C10.22 7.5 10.4 7.33125 10.4 7.125V6.375C10.4 6.16875 10.22 6 10 6H9.2C9.12 6 9.0475 6.02109 8.985 6.05859L7.2 3.28359V1.125C7.2 0.503672 7.7375 0 8.4 0H10.8ZM9.2 1.5C8.98 1.5 8.8 1.66781 8.8 1.875V2.625C8.8 2.83125 8.98 3 9.2 3H10C10.22 3 10.4 2.83125 10.4 2.625V1.875C10.4 1.66781 10.22 1.5 10 1.5H9.2ZM8.8 4.875C8.8 5.08125 8.98 5.25 9.2 5.25H10C10.22 5.25 10.4 5.08125 10.4 4.875V4.125C10.4 3.91875 10.22 3.75 10 3.75H9.2C8.98 3.75 8.8 3.91875 8.8 4.125V4.875ZM12.8 7.125C12.8 7.33125 12.98 7.5 13.2 7.5H14C14.22 7.5 14.4 7.33125 14.4 7.125V6.375C14.4 6.16875 14.22 6 14 6H13.2C12.98 6 12.8 6.16875 12.8 6.375V7.125ZM13.2 8.25C12.98 8.25 12.8 8.41875 12.8 8.625V9.375C12.8 9.58125 12.98 9.75 13.2 9.75H14C14.22 9.75 14.4 9.58125 14.4 9.375V8.625C14.4 8.41875 14.22 8.25 14 8.25H13.2ZM11.0725 10.7555C11.235 11.0086 11.2425 11.325 11.09 11.5828C10.9375 11.8406 10.65 12 10.3375 12H0.861498C0.527498 12 0.262498 11.8406 0.110098 11.5828C-0.0423271 11.325 -0.0361021 11.0086 0.126398 10.7555L4.865 3.39141C5.0225 3.14766 5.2775 3 5.6 3C5.9 3 6.1775 3.14766 6.335 3.39141L11.0725 10.7555ZM5.5775 4.42734L3.76 7.28437L4.3525 8.25L5.5525 6.75H7.095L5.5775 4.42734V4.42734Z" fill="white"/>
</svg>
