<svg width="17" height="17" viewBox="0 0 17 17" fill="none" xmlns="http://www.w3.org/2000/svg">
<path d="M14.5 7H8.5C8.10218 7 7.72064 7.15804 7.43934 7.43934C7.15804 7.72064 7 8.10218 7 8.5V13C7 13.3978 7.15804 13.7794 7.43934 14.0607C7.72064 14.342 8.10218 14.5 8.5 14.5H9.1975C9.44439 14.5 9.68747 14.5609 9.90517 14.6773C10.1229 14.7937 10.3085 14.9621 10.4455 15.1675L10.876 15.814C10.9445 15.9167 11.0373 16.0009 11.1461 16.0592C11.255 16.1174 11.3765 16.1479 11.5 16.1479C11.6235 16.1479 11.745 16.1174 11.8539 16.0592C11.9627 16.0009 12.0555 15.9167 12.124 15.814L12.5545 15.1683C12.6914 14.9627 12.877 14.7942 13.0947 14.6776C13.3124 14.5611 13.5555 14.5 13.8025 14.5H14.5C14.8978 14.5 15.2794 14.342 15.5607 14.0607C15.842 13.7794 16 13.3978 16 13V8.5C16 8.10218 15.842 7.72064 15.5607 7.43934C15.2794 7.15804 14.8978 7 14.5 7Z" stroke="#526581" stroke-width="1.5" stroke-linecap="round" stroke-linejoin="round"/>
<path d="M10 4.75V2.5C10 2.10218 9.84196 1.72064 9.56066 1.43934C9.27936 1.15804 8.89782 1 8.5 1H2.5C2.10218 1 1.72064 1.15804 1.43934 1.43934C1.15804 1.72064 1 2.10218 1 2.5V7C1 7.39782 1.15804 7.77936 1.43934 8.06066C1.72064 8.34196 2.10218 8.5 2.5 8.5H3.1975C3.44439 8.49996 3.68747 8.56087 3.90517 8.67731C4.12288 8.79375 4.30848 8.96213 4.4455 9.1675L4.75 9.625" stroke="#526581" stroke-width="1.5" stroke-linecap="round" stroke-linejoin="round"/>
</svg>
