<svg width="23" height="24" viewBox="0 0 23 24" fill="none" xmlns="http://www.w3.org/2000/svg">
<path d="M2.17292 0.687374C3.39984 -0.0185231 4.96437 -0.183922 6.45994 0.205946C7.18833 0.394973 7.81041 0.880831 8.18394 1.54981L9.47407 3.86244C9.93389 4.68691 10.0667 5.6619 9.84486 6.58449C9.62302 7.50707 9.06361 8.30619 8.28307 8.81553L7.1481 9.55687C6.67831 9.86256 6.50591 10.3307 6.61366 10.7014C6.99869 12.0275 7.85063 13.4984 8.78734 14.5055C9.06606 14.8068 9.57751 14.8777 10.0775 14.5779L10.7053 14.2013C11.1172 13.9545 11.5729 13.7945 12.0456 13.7306C12.5184 13.6666 12.9988 13.7001 13.4588 13.8291C13.9189 13.958 14.3493 14.1798 14.7251 14.4816C15.1008 14.7833 15.4144 15.1589 15.6474 15.5865L16.8039 17.7057C17.1818 18.3998 17.2436 19.2283 16.9763 19.974C16.4433 21.4552 15.4161 22.6485 14.1533 23.248C12.8704 23.855 11.369 23.8299 10.0099 22.898C7.85782 21.4242 5.26463 18.9432 2.91568 14.8053C0.53656 10.6113 -0.0625298 7.04193 0.00499356 4.38078C0.0480936 2.67806 0.924461 1.40509 2.17292 0.687374Z" fill="white"/>
<path d="M15.3789 0.126269C15.2124 0.0310934 15.0159 0.00780887 14.8327 0.0615374C14.6495 0.115266 14.4945 0.241606 14.4019 0.412765C14.3093 0.583924 14.2867 0.785881 14.339 0.974208C14.3912 1.16254 14.5141 1.32181 14.6807 1.41698L15.2323 1.73301C16.9558 2.71715 18.4218 4.11559 19.5051 5.8088C20.5884 7.50202 21.2568 9.43968 21.4531 11.4562L21.4991 11.9214C21.5045 12.0209 21.5295 12.1183 21.5725 12.2077C21.6156 12.2971 21.6758 12.3766 21.7495 12.4414C21.8233 12.5062 21.909 12.5549 22.0016 12.5847C22.0942 12.6145 22.1917 12.6248 22.2882 12.6148C22.3847 12.6048 22.4783 12.5748 22.5632 12.5266C22.6482 12.4785 22.7228 12.4131 22.7825 12.3345C22.8422 12.2559 22.8858 12.1657 22.9106 12.0693C22.9355 11.9729 22.9411 11.8724 22.9271 11.7737L22.8826 11.31C22.6634 9.05579 21.9164 6.8897 20.7055 4.99689C19.4946 3.10407 17.8557 1.54084 15.9291 0.440824L15.3789 0.126269Z" fill="white"/>
<path d="M13.6954 4.0845C13.7935 3.91671 13.9525 3.79584 14.1373 3.74849C14.3221 3.70113 14.5177 3.73117 14.6809 3.83198L14.8591 3.94126C16.0185 4.65608 17.0131 5.62114 17.7741 6.76974C18.5351 7.91835 19.0444 9.22311 19.2668 10.5939L19.33 10.9881C19.3486 11.0851 19.3481 11.1849 19.3285 11.2817C19.3089 11.3784 19.2706 11.4702 19.2159 11.5514C19.1612 11.6327 19.0911 11.7018 19.0099 11.7548C18.9287 11.8077 18.838 11.8433 18.7431 11.8595C18.6483 11.8757 18.5512 11.8722 18.4577 11.8492C18.3642 11.8261 18.2762 11.784 18.1988 11.7253C18.1214 11.6666 18.0563 11.5926 18.0073 11.5076C17.9583 11.4225 17.9264 11.3283 17.9135 11.2303L17.8488 10.836C17.6608 9.67628 17.2301 8.57232 16.5864 7.60041C15.9427 6.6285 15.1014 5.81182 14.1206 5.2068L13.9425 5.09753C13.8615 5.0477 13.7909 4.98197 13.7347 4.90409C13.6785 4.82621 13.6377 4.73771 13.6148 4.64363C13.5918 4.54956 13.5871 4.45176 13.601 4.35582C13.6148 4.25989 13.6469 4.16769 13.6954 4.0845Z" fill="white"/>
</svg>
