<svg width="25" height="13" viewBox="0 0 25 13" fill="none" xmlns="http://www.w3.org/2000/svg">
<path d="M3.91875 9.09691C2.88854 9.09691 2.05156 9.97275 2.05156 11.049C2.05073 11.5651 2.24692 12.0604 2.59703 12.4261C2.94713 12.7918 3.42252 12.998 3.91875 12.9995C4.41544 12.9985 4.89141 12.7924 5.24204 12.4265C5.59266 12.0607 5.78923 11.565 5.78854 11.0485C5.7891 10.5319 5.59249 10.0363 5.24191 9.67036C4.89134 9.30445 4.41544 9.0982 3.91875 9.09691ZM3.91875 12.0548C3.67048 12.054 3.43269 11.9506 3.25767 11.7675C3.08265 11.5844 2.98473 11.3364 2.98542 11.0782C2.98528 10.8203 3.08342 10.5729 3.25835 10.39C3.43328 10.2072 3.67074 10.1039 3.91875 10.1027C4.16721 10.1032 4.40535 10.2062 4.58084 10.3891C4.75633 10.572 4.85483 10.8199 4.85469 11.0782C4.85503 11.2063 4.83108 11.3332 4.7842 11.4516C4.73733 11.5701 4.66845 11.6777 4.58151 11.7684C4.49458 11.8592 4.39129 11.9311 4.27756 11.9803C4.16383 12.0294 4.0419 12.0548 3.91875 12.0548ZM20.3474 9.09691C19.3156 9.09691 18.4792 9.97275 18.4792 11.049C18.4782 11.5653 18.6745 12.0609 19.0248 12.4268C19.3752 12.7927 19.8509 12.9989 20.3474 13C21.3786 13 22.2172 12.1263 22.2172 11.049C22.2177 10.5324 22.0212 10.0367 21.6706 9.67071C21.32 9.30472 20.8441 9.09835 20.3474 9.09691ZM20.3474 12.0548C20.099 12.054 19.8611 11.9506 19.686 11.7675C19.5108 11.5845 19.4126 11.3365 19.413 11.0782C19.413 10.8202 19.5113 10.5726 19.6865 10.3898C19.8616 10.207 20.0993 10.1037 20.3474 10.1027C20.8641 10.1027 21.2833 10.5409 21.2833 11.0782C21.2835 11.2063 21.2595 11.3331 21.2126 11.4515C21.1656 11.5698 21.0968 11.6774 21.0099 11.7681C20.9229 11.8588 20.8197 11.9308 20.706 11.98C20.5924 12.0292 20.4705 12.0546 20.3474 12.0548ZM24.4828 0H8.0526C7.9152 0.000430322 7.78358 0.057532 7.68662 0.158774C7.58966 0.260016 7.53528 0.397128 7.53542 0.540019V5.43756H6.50052V2.4309C6.50066 2.36008 6.48737 2.28993 6.46142 2.22445C6.43547 2.15897 6.39737 2.09946 6.34929 2.0493C6.30121 1.99915 6.24409 1.95935 6.18121 1.93216C6.11833 1.90498 6.05091 1.89095 5.98281 1.89088H2.45781C1.84323 1.89088 1.29427 2.36319 1.19583 3.03917V3.00396L0.645834 6.24678L0.646876 6.25816C0.465637 6.29052 0.301261 6.38855 0.182863 6.53487C0.0644644 6.6812 -0.000314093 6.86638 1.14515e-06 7.05762L0.0171886 7.23095L1.14515e-06 7.22607L0.776043 10.874H1.58438V10.841C1.58438 9.53348 2.61302 8.47456 3.88125 8.47456C5.14844 8.47456 6.17761 9.53348 6.17761 10.841V10.874H18.0141V10.841C18.0141 9.53348 19.0432 8.47456 20.3094 8.47456C21.5776 8.47456 22.6068 9.53348 22.6068 10.841L22.6047 10.874H25V0.540019C25.0001 0.469245 24.9869 0.399136 24.961 0.333695C24.935 0.268253 24.897 0.208762 24.849 0.158616C24.8009 0.108471 24.7439 0.0686538 24.6811 0.0414383C24.6182 0.0142229 24.5509 0.000142117 24.4828 0ZM4.68906 2.76834V5.43756H1.5849L1.97292 3.17295C2.00521 2.90213 2.23177 2.70226 2.45781 2.70226H4.68906V2.76834Z" fill="#4A3AFF"/>
</svg>
