<svg width="81" height="77" viewBox="0 0 81 77" fill="none" xmlns="http://www.w3.org/2000/svg">
<path d="M50.1203 71.7207L44.963 70.6357C44.4941 70.5453 44.119 70.3114 43.8377 69.9341C43.5564 69.5579 43.447 69.1438 43.5095 68.6918L44.0253 63.5833L40.5089 59.6954C40.1963 59.3639 40.04 58.9721 40.04 58.52C40.04 58.0679 40.1963 57.6761 40.5089 57.3446L44.0253 53.4567L43.5095 48.3482C43.447 47.8961 43.5564 47.482 43.8377 47.1059C44.119 46.7285 44.4941 46.4947 44.963 46.4043L50.1203 45.3193L52.8397 40.8889C53.0897 40.4971 53.4336 40.2409 53.8712 40.1203C54.3088 39.9998 54.7463 40.0149 55.1839 40.1656L60.06 42.1547L64.9361 40.1656C65.3737 40.0149 65.8113 39.9998 66.2489 40.1203C66.6865 40.2409 67.0303 40.4971 67.2803 40.8889L69.9997 45.3193L75.1571 46.4043C75.6259 46.4947 76.001 46.7285 76.2823 47.1059C76.5636 47.482 76.673 47.8961 76.6105 48.3482L76.0948 53.4567L79.6112 57.3446C79.9237 57.6761 80.08 58.0679 80.08 58.52C80.08 58.9721 79.9237 59.3639 79.6112 59.6954L76.0948 63.5833L76.6105 68.6918C76.673 69.1438 76.5636 69.5579 76.2823 69.9341C76.001 70.3114 75.6259 70.5453 75.1571 70.6357L69.9997 71.7207L67.2803 76.1511C67.0303 76.5429 66.6865 76.799 66.2489 76.9196C65.8113 77.0402 65.3737 77.0251 64.9361 76.8744L60.06 74.8853L55.1839 76.8744C54.7463 77.0251 54.3088 77.0402 53.8712 76.9196C53.4336 76.799 53.0897 76.5429 52.8397 76.1511L50.1203 71.7207ZM56.778 63.6737C57.1219 64.0052 57.5595 64.171 58.0908 64.171C58.6222 64.171 59.0598 64.0052 59.4036 63.6737L67.3741 55.9883C67.7492 55.6267 67.9367 55.1969 67.9367 54.699C67.9367 54.2023 67.7492 53.7731 67.3741 53.4115C66.999 53.0498 66.5539 52.869 66.0388 52.869C65.5225 52.869 65.0767 53.0498 64.7017 53.4115L58.0908 59.7858L55.3715 57.2089C54.9964 56.8774 54.5513 56.7189 54.0362 56.7334C53.5198 56.749 53.0897 56.9226 52.7459 57.2542C52.4021 57.5857 52.2302 58.0076 52.2302 58.52C52.2302 59.0323 52.4021 59.4543 52.7459 59.7858L56.778 63.6737Z" fill="#002F86"/>
<path d="M40.04 40.0431C40.4219 40.0431 40.7977 40.077 41.1611 40.1447C38.8593 42.3027 37.0254 44.9105 35.7729 47.8065C34.5204 50.7025 33.8761 53.8248 33.88 56.98C33.88 61.0025 34.9087 64.7847 36.7136 68.0772C32.4786 70.0608 27.4674 70.84 23.1 70.84C13.4011 70.84 0.52668 66.9962 0.0154004 54.6638L0 53.9V46.2C0 42.9537 2.51328 40.2926 5.698 40.0554L6.16 40.04L40.04 40.0431ZM70.84 20.02C70.84 23.6959 69.3798 27.2212 66.7805 29.8205C64.1812 32.4198 60.6559 33.88 56.98 33.88C53.3041 33.88 49.7788 32.4198 47.1795 29.8205C44.5802 27.2212 43.12 23.6959 43.12 20.02C43.12 16.3441 44.5802 12.8188 47.1795 10.2195C49.7788 7.62025 53.3041 6.16 56.98 6.16C60.6559 6.16 64.1812 7.62025 66.7805 10.2195C69.3798 12.8188 70.84 16.3441 70.84 20.02ZM23.1 7.00721e-08C25.3248 0.000202273 27.5278 0.438608 29.5831 1.29019C31.6385 2.14177 33.506 3.38984 35.079 4.96315C36.6521 6.53646 37.8998 8.4042 38.751 10.4597C39.6022 12.5152 40.0402 14.7183 40.04 16.9431C40.0398 19.1679 39.6014 21.3708 38.7498 23.4262C37.8982 25.4816 36.6502 27.3491 35.0768 28.9221C33.5035 30.4951 31.6358 31.7429 29.5803 32.5941C27.5248 33.4453 25.3217 33.8833 23.0969 33.8831C18.6037 33.8827 14.2948 32.0974 11.1179 28.9199C7.94103 25.7425 6.15651 21.4332 6.15692 16.94C6.15733 12.4468 7.94263 8.13784 11.1201 4.96097C14.2975 1.78411 18.6068 -0.000408296 23.1 7.00721e-08Z" fill="#002F86"/>
</svg>
