<svg width="93" height="68" viewBox="0 0 93 68" fill="none" xmlns="http://www.w3.org/2000/svg">
<path d="M90.757 38.4738C88.8626 36.7559 85.9085 36.8683 83.9178 38.4738L69.0832 50.3389C67.2691 51.8 65.0054 52.5867 62.6614 52.5867H43.6687C42.2559 52.5867 41.1 51.4307 41.1 50.0178C41.1 48.6049 42.2559 47.4489 43.6687 47.4489H56.2395C58.7922 47.4489 61.1683 45.6988 61.5857 43.1781C62.1155 39.967 59.6431 37.1733 56.5124 37.1733H30.825C26.4902 37.1733 22.2999 38.6665 18.9285 41.3959L11.463 47.4489H2.56875C1.15594 47.4489 0 48.6049 0 50.0178V65.4311C0 66.844 1.15594 68 2.56875 68H59.8518C62.1797 68 64.4434 67.2133 66.2737 65.7522L90.5483 46.325C92.9886 44.3823 93.1813 40.6574 90.757 38.4738Z" fill="#002F86"/>
<path d="M56.2133 0C53.3442 0 50.5395 0.850801 48.1539 2.44481C45.7683 4.03883 43.9089 6.30446 42.8109 8.9552C41.713 11.606 41.4257 14.5228 41.9854 17.3368C42.5452 20.1508 43.9268 22.7356 45.9556 24.7644C47.9844 26.7932 50.5692 28.1748 53.3832 28.7346C56.1972 29.2943 59.1141 29.0071 61.7648 27.9091C64.4155 26.8111 66.6812 24.9517 68.2752 22.5661C69.8692 20.1805 70.72 17.3758 70.72 14.5067C70.72 10.6593 69.1916 6.96943 66.4711 4.2489C63.7506 1.52838 60.0607 0 56.2133 0ZM61.5445 8.16H63.4667C63.7071 8.16 63.9377 8.25552 64.1078 8.42556C64.2778 8.59559 64.3733 8.8262 64.3733 9.06667C64.3733 9.30713 64.2778 9.53774 64.1078 9.70778C63.9377 9.87781 63.7071 9.97333 63.4667 9.97333H61.8891V10.1456C61.9023 10.8722 61.7719 11.5943 61.5054 12.2705C61.239 12.9466 60.8416 13.5635 60.3362 14.0858C59.8308 14.608 59.2273 15.0254 58.5602 15.3138C57.8932 15.6023 57.1758 15.7563 56.4491 15.7669H54.6357L60.8192 23.0747C61.014 23.3043 61.1096 23.6019 61.0849 23.902C61.0602 24.2021 60.9174 24.4802 60.6877 24.6749C60.4581 24.8697 60.1605 24.9653 59.8604 24.9406C59.5603 24.916 59.2822 24.7731 59.0875 24.5435L51.3445 15.3589C51.2016 15.1913 51.1107 14.9857 51.0828 14.7672C51.0549 14.5488 51.0913 14.3269 51.1874 14.1287C51.2836 13.9306 51.4355 13.7648 51.6244 13.6516C51.8133 13.5383 52.0311 13.4826 52.2512 13.4912H56.5216C57.3834 13.4651 58.1996 13.0982 58.7912 12.471C59.3827 11.8437 59.7012 11.0074 59.6768 10.1456V9.96427H51.5168C51.2763 9.96427 51.0457 9.86874 50.8757 9.69871C50.7057 9.52868 50.6101 9.29806 50.6101 9.0576C50.6101 8.81714 50.7057 8.58652 50.8757 8.41649C51.0457 8.24646 51.2763 8.15093 51.5168 8.15093H59.0603C58.781 7.73776 58.4059 7.39829 57.967 7.16147C57.5281 6.92466 57.0384 6.79753 56.5397 6.79093H51.4533C51.1528 6.79093 50.8645 6.67153 50.652 6.45899C50.4394 6.24645 50.32 5.95818 50.32 5.6576C50.32 5.35702 50.4394 5.06875 50.652 4.85621C50.8645 4.64367 51.1528 4.52427 51.4533 4.52427H63.4667C63.7071 4.52427 63.9377 4.61979 64.1078 4.78982C64.2778 4.95986 64.3733 5.19047 64.3733 5.43093C64.3733 5.6714 64.2778 5.90201 64.1078 6.07204C63.9377 6.24208 63.7071 6.3376 63.4667 6.3376H60.4565C60.9311 6.87086 61.3003 7.48924 61.5445 8.16Z" fill="#002F86"/>
</svg>
