<svg width="38" height="36" viewBox="0 0 38 36" fill="none" xmlns="http://www.w3.org/2000/svg">
<path d="M23.859 33.2702L23.7464 33.0867L23.5358 33.0424L21.1246 32.5352L21.1246 32.5351L21.1163 32.5335C21.0176 32.5145 20.9522 32.4724 20.8964 32.3976L20.8959 32.397C20.8407 32.3231 20.8268 32.2609 20.8374 32.1841L20.8386 32.175L20.8396 32.1658L21.0807 29.7774L21.103 29.5565L20.9541 29.3918L19.31 27.5741L19.3101 27.574L19.303 27.5665C19.2436 27.5035 19.22 27.4427 19.22 27.36C19.22 27.2772 19.2436 27.2165 19.303 27.1534L19.3031 27.1535L19.31 27.1458L20.9541 25.3281L21.103 25.1634L21.0807 24.9425L20.8396 22.5541L20.8386 22.545L20.8374 22.5358C20.8268 22.459 20.8407 22.3969 20.8959 22.323L20.8964 22.3224C20.9522 22.2475 21.0176 22.2055 21.1163 22.1864L21.1163 22.1865L21.1246 22.1848L23.5358 21.6775L23.7464 21.6332L23.859 21.4498L25.1277 19.3828C25.1793 19.3031 25.2381 19.2619 25.3193 19.2396C25.4211 19.2116 25.5193 19.213 25.6261 19.2476L27.8911 20.1716L28.08 20.2487L28.2689 20.1716L30.5339 19.2476C30.6407 19.213 30.7389 19.2116 30.8407 19.2396C30.9218 19.2619 30.9806 19.3031 31.0323 19.3828L32.301 21.4498L32.4136 21.6332L32.6242 21.6775L35.0354 22.1848L35.0354 22.1848L35.0437 22.1864C35.1424 22.2055 35.2078 22.2475 35.2636 22.3224L35.264 22.323C35.3193 22.3969 35.3332 22.459 35.3226 22.5358L35.3213 22.545L35.3204 22.5541L35.0793 24.9425L35.057 25.1634L35.2059 25.3281L36.85 27.1458L36.8499 27.1459L36.857 27.1534C36.9164 27.2165 36.94 27.2772 36.94 27.36C36.94 27.4427 36.9164 27.5035 36.857 27.5665L36.8569 27.5664L36.85 27.5741L35.2059 29.3918L35.057 29.5565L35.0793 29.7774L35.3204 32.1658L35.3213 32.175L35.3226 32.1841C35.3332 32.2609 35.3193 32.3231 35.264 32.397L35.2636 32.3976C35.2078 32.4724 35.1424 32.5145 35.0437 32.5335L35.0437 32.5334L35.0354 32.5352L32.6242 33.0424L32.4136 33.0867L32.301 33.2702L31.0323 35.3371C30.9807 35.4168 30.9219 35.458 30.8407 35.4803C30.7389 35.5084 30.6407 35.5069 30.5339 35.4723L28.2689 34.5483L28.08 34.4713L27.8911 34.5483L25.6261 35.4723C25.5193 35.5069 25.4211 35.5084 25.3193 35.4803C25.2381 35.458 25.1793 35.4168 25.1277 35.3371L23.859 33.2702ZM20.4955 32.6964C20.364 32.5206 20.3129 32.327 20.3421 32.1156L21.0216 33.0245C20.8024 32.9822 20.6271 32.8728 20.4955 32.6964ZM26.2319 26.3841L26.2256 26.3781L26.2191 26.3724C25.9457 26.1307 25.6131 26.0147 25.2496 26.0249L25.2485 26.0249C24.8939 26.0357 24.5712 26.1596 24.3134 26.4082C24.0472 26.6648 23.9193 26.9956 23.9193 27.36C23.9193 27.7243 24.0472 28.0551 24.3134 28.3117L26.1985 30.1294C26.4633 30.3847 26.7973 30.502 27.1593 30.502C27.5214 30.502 27.8554 30.3847 28.1202 30.1294L31.8466 26.5363C32.1146 26.2779 32.2626 25.949 32.2626 25.5735C32.2626 25.1983 32.1144 24.8698 31.8466 24.6116C31.5793 24.3539 31.2472 24.2179 30.8753 24.2179C30.5031 24.2179 30.1707 24.3536 29.9031 24.6116L27.1563 27.2601L26.2319 26.3841Z" stroke="black"/>
<path d="M16.476 31.5846C15.7488 30.0912 15.3401 28.4131 15.34 26.6406C15.3381 25.097 15.6533 23.5694 16.2661 22.1526C16.7282 21.084 17.3522 20.0956 18.1141 19.2214L2.88828 19.22L2.6914 19.2266M16.476 31.5846C14.6848 32.3199 12.6269 32.62 10.8 32.62C8.58598 32.62 6.03952 32.1793 4.036 31.0638C2.05512 29.961 0.619529 28.2133 0.50699 25.5416M16.476 31.5846C16.5494 31.7353 16.6259 31.884 16.7057 32.0308L15.84 26.64C15.84 28.3422 16.234 29.9524 16.9345 31.384C16.7839 31.4542 16.6309 31.5211 16.476 31.5846ZM0.50699 25.5416L0.5 25.195M0.50699 25.5416L0.507099 25.547L0.00720016 25.5571L0.506771 25.5364C0.506843 25.5381 0.506916 25.5399 0.50699 25.5416ZM0.5 25.195V21.6C0.5 20.3493 1.46603 19.3228 2.6914 19.2266M0.5 25.195V25.2H0L0.499898 25.1899L0.5 25.195ZM2.6914 19.2266L2.68066 19.2269L2.664 18.7272L2.70113 19.2258C2.69789 19.2261 2.69464 19.2263 2.6914 19.2266ZM32.62 9.36C32.62 10.946 31.99 12.467 30.8685 13.5885C29.747 14.71 28.226 15.34 26.64 15.34C25.054 15.34 23.533 14.71 22.4115 13.5885C21.29 12.467 20.66 10.946 20.66 9.36C20.66 7.774 21.29 6.25297 22.4115 5.1315C23.533 4.01003 25.054 3.38 26.64 3.38C28.226 3.38 29.747 4.01003 30.8685 5.1315C31.99 6.25297 32.62 7.774 32.62 9.36ZM10.7999 0.5C11.7745 0.500089 12.7394 0.692119 13.6397 1.06513C14.54 1.43813 15.358 1.98481 16.047 2.67395C16.736 3.36309 17.2825 4.1812 17.6554 5.08155C18.0282 5.98191 18.2201 6.94689 18.22 7.92139C18.2199 8.89589 18.0279 9.86084 17.6549 10.7611C17.2819 11.6614 16.7352 12.4794 16.046 13.1684C15.3569 13.8574 14.5388 14.404 13.6384 14.7768C12.7381 15.1497 11.7731 15.3415 10.7986 15.3414C8.8305 15.3413 6.94309 14.5593 5.55156 13.1675C4.16003 11.7757 3.37838 9.88814 3.37856 7.92004C3.37874 5.95195 4.16073 4.06453 5.55251 2.673C6.94429 1.28147 8.83185 0.499821 10.7999 0.5Z" stroke="black"/>
</svg>
