<svg width="68" height="63" viewBox="0 0 68 63" fill="none" xmlns="http://www.w3.org/2000/svg">
<path d="M10.3539 5.17694H9.85385V5.67694V57.8564V58.3564H10.3539H38.8154H39.3154V57.8564V5.67694V5.17694H38.8154H10.3539ZM7.98206 1.43335H41.1872C41.6836 1.43335 42.1597 1.63056 42.5107 1.98159C42.8618 2.33261 43.059 2.80871 43.059 3.30514V60.2282C43.059 60.7247 42.8618 61.2008 42.5107 61.5518C42.1597 61.9028 41.6836 62.1 41.1872 62.1H7.98206C7.48562 62.1 7.00953 61.9028 6.6585 61.5518C6.30747 61.2008 6.11026 60.7247 6.11026 60.2282V3.30514C6.11026 2.80871 6.30747 2.33262 6.6585 1.98159C7.00953 1.63056 7.48562 1.43335 7.98206 1.43335Z" fill="white" stroke="#2E2E2E"/>
<path d="M15.5974 15.6641H33.5718V19.4077H15.5974V15.6641ZM15.5974 29.8948H33.5718V33.6384H15.5974V29.8948ZM15.5974 44.1256H33.5718V47.8692H15.5974V44.1256ZM44.059 34.6384H52.5462V38.382H44.059V34.6384ZM44.059 44.1256H52.5462V47.8692H44.059V44.1256ZM66.7769 58.3564V62.1H1.36667V58.3564H66.7769Z" fill="white" stroke="#2E2E2E"/>
<path d="M43.559 24.1513H43.059V24.6513V57.8564V58.3564H43.559H57.7898H58.2898V57.8564V24.6513V24.1513H57.7898H43.559ZM61.4851 20.956L61.8387 20.6024L61.4851 20.956C61.8362 21.307 62.0334 21.7831 62.0334 22.2795V60.2282C62.0334 60.7247 61.8362 61.2008 61.4851 61.5518C61.1341 61.9028 60.658 62.1 60.1616 62.1H41.1872C40.6908 62.1 40.2147 61.9028 39.8636 61.5518C39.5126 61.2008 39.3154 60.7247 39.3154 60.2282V22.2795C39.3154 21.7831 39.5126 21.307 39.8636 20.956C40.2147 20.6049 40.6908 20.4077 41.1872 20.4077H60.1616C60.658 20.4077 61.1341 20.6049 61.4851 20.956Z" fill="white" stroke="#2E2E2E"/>
</svg>
