<svg width="48" height="35" viewBox="0 0 48 35" fill="none" xmlns="http://www.w3.org/2000/svg">
<path d="M46.3773 20.1731L46.3785 20.1742C47.3935 21.0884 47.3121 22.6423 46.2943 23.4525L46.2933 23.4533L33.7995 33.4523C32.9465 34.1332 31.8914 34.5 30.8061 34.5H1.32215C0.871135 34.5 0.5 34.1288 0.5 33.6777V25.7444C0.5 25.2933 0.871135 24.9222 1.32215 24.9222H5.90009H6.07732L6.21499 24.8106L10.0572 21.6953C11.7041 20.362 13.75 19.6333 15.8658 19.6333H29.0873C30.3953 19.6333 31.4266 20.7995 31.2052 22.1423C31.0361 23.1638 30.0529 23.9222 28.9468 23.9222H22.4765C21.4732 23.9222 20.6544 24.7411 20.6544 25.7444C20.6544 26.7477 21.4732 27.5666 22.4765 27.5666H32.2522C33.5705 27.5666 34.8465 27.1241 35.8706 26.2995C35.8708 26.2994 35.871 26.2992 35.8712 26.2991L43.5053 20.1931L43.5068 20.1919C44.3681 19.4973 45.6103 19.4775 46.3773 20.1731Z" stroke="black"/>
<path d="M25.9686 3.86524C25.9202 3.89851 25.8746 3.93634 25.8325 3.97846C25.6512 4.15975 25.5493 4.40562 25.5493 4.662C25.5493 4.91838 25.6512 5.16425 25.8325 5.34554C26.0137 5.52682 26.2596 5.62867 26.516 5.62867H30.1604C30.1074 5.79399 30.0178 5.94711 29.8964 6.07583C29.6844 6.30065 29.3924 6.43285 29.0838 6.444H26.9023C26.6957 6.43808 26.4917 6.49136 26.3143 6.59766C26.1337 6.70589 25.9886 6.8644 25.8967 7.05379L26.3465 7.27215L25.8967 7.0538C25.8047 7.24319 25.77 7.45528 25.7966 7.66412L26.2926 7.60078L25.7966 7.66412C25.8232 7.87245 25.9098 8.06854 26.0458 8.22855C26.0462 8.22894 26.0465 8.22932 26.0468 8.22971L30.0304 12.9549L30.0314 12.9561C30.2174 13.1754 30.4829 13.3119 30.7695 13.3354C31.0562 13.359 31.3404 13.2677 31.5597 13.0816C31.7791 12.8956 31.9155 12.6301 31.9391 12.3435C31.9626 12.0569 31.8714 11.7726 31.6854 11.5533L31.6857 11.5537L31.304 11.8767L31.6853 11.5532L25.9686 3.86524ZM25.9686 3.86524C25.877 3.81579 25.7922 3.75297 25.7173 3.67803C25.5141 3.47487 25.4 3.19932 25.4 2.912C25.4 2.62468 25.5141 2.34913 25.7173 2.14597C25.9205 1.9428 26.196 1.82867 26.4833 1.82867H32.6667C32.923 1.82867 33.1689 1.93051 33.3502 2.1118C33.5315 2.29308 33.6333 2.53896 33.6333 2.79533C33.6333 3.05171 33.5315 3.29758 33.3502 3.47887C33.2274 3.60172 33.0748 3.68808 32.9095 3.731C33.0748 3.77391 33.2274 3.86028 33.3502 3.98313C33.5315 4.16441 33.6333 4.41029 33.6333 4.66667C33.6333 4.92304 33.5315 5.16892 33.3502 5.3502L32.9966 4.99665L33.3502 5.3502C33.1689 5.53149 32.923 5.63333 32.6667 5.63333H32.3357C32.3037 5.9295 32.2321 6.22069 32.1224 6.49902L31.6572 6.31569L32.1224 6.49902C31.9611 6.90826 31.7206 7.28164 31.4147 7.59773L31.0554 7.25002L31.4147 7.59773C31.1088 7.91383 30.7435 8.16643 30.3398 8.34104C29.9769 8.49797 29.5895 8.58914 29.1954 8.61066M25.9686 3.86524L29.1954 8.61066M29.1954 8.61066L29.0596 8.45008L29.0547 8.4443L28.7763 8.11533L29.1954 8.61066ZM29.1954 8.61066C29.151 8.61309 29.1065 8.61463 29.062 8.61528L29.0547 8.61539V8.61533H28.5444L29.1954 8.61066ZM25.0629 1.67409C26.2085 0.908588 27.5555 0.5 28.9333 0.5C30.781 0.5 32.553 1.23399 33.8595 2.54049C35.166 3.84699 35.9 5.61899 35.9 7.46667C35.9 8.84454 35.4914 10.1915 34.7259 11.3371C33.9604 12.4828 32.8724 13.3757 31.5994 13.903C30.3264 14.4303 28.9256 14.5683 27.5742 14.2995C26.2228 14.0307 24.9815 13.3671 24.0072 12.3928C23.0329 11.4185 22.3693 10.1772 22.1005 8.82579C21.8317 7.47439 21.9697 6.07363 22.497 4.80064C23.0243 3.52765 23.9172 2.4396 25.0629 1.67409Z" stroke="black"/>
</svg>
