<svg width="31" height="31" viewBox="0 0 31 31" fill="none" xmlns="http://www.w3.org/2000/svg">
<path d="M16.2876 10.3661C13.8848 10.3661 11.9239 12.4024 11.9239 14.8977C11.9239 17.393 13.8848 19.4293 16.2876 19.4293C18.6904 19.4293 20.6513 17.393 20.6513 14.8977C20.6513 12.4024 18.6904 10.3661 16.2876 10.3661ZM29.3754 14.8977C29.3754 13.0211 29.3918 11.1616 29.2903 9.2884C29.1888 7.11268 28.7109 5.18172 27.1789 3.59072C25.6435 1.99632 23.7874 1.50338 21.6923 1.39799C19.8853 1.29261 18.0946 1.3096 16.2909 1.3096C14.4838 1.3096 12.6932 1.29261 10.8894 1.39799C8.79433 1.50338 6.93492 1.99972 5.40288 3.59072C3.86756 5.18512 3.39289 7.11268 3.29141 9.2884C3.18993 11.165 3.2063 13.0245 3.2063 14.8977C3.2063 16.7709 3.18993 18.6338 3.29141 20.507C3.39289 22.6827 3.87084 24.6137 5.40288 26.2047C6.9382 27.7991 8.79433 28.292 10.8894 28.3974C12.6965 28.5028 14.4871 28.4858 16.2909 28.4858C18.0979 28.4858 19.8886 28.5028 21.6923 28.3974C23.7874 28.292 25.6468 27.7957 27.1789 26.2047C28.7142 24.6103 29.1888 22.6827 29.2903 20.507C29.3951 18.6338 29.3754 16.7743 29.3754 14.8977ZM16.2876 21.8702C12.5721 21.8702 9.57344 18.7562 9.57344 14.8977C9.57344 11.0392 12.5721 7.92517 16.2876 7.92517C20.0031 7.92517 23.0017 11.0392 23.0017 14.8977C23.0017 18.7562 20.0031 21.8702 16.2876 21.8702ZM23.2767 9.268C22.4092 9.268 21.7087 8.5405 21.7087 7.63961C21.7087 6.73872 22.4092 6.01121 23.2767 6.01121C24.1442 6.01121 24.8448 6.73872 24.8448 7.63961C24.845 7.85353 24.8047 8.0654 24.7259 8.26309C24.6472 8.46077 24.5317 8.64039 24.3861 8.79166C24.2404 8.94292 24.0675 9.06286 23.8771 9.1446C23.6867 9.22634 23.4827 9.26827 23.2767 9.268Z" fill="white"/>
</svg>
