<svg width="16" height="15" viewBox="0 0 16 15" fill="none" xmlns="http://www.w3.org/2000/svg">
<path d="M7.01769 0.337341C7.55934 -0.0843353 8.30426 -0.11069 8.87131 0.258277L8.98224 0.337341L15.6892 5.55859C16.2666 6.0081 15.9853 6.91324 15.2905 6.98789L15.1975 6.99281H14.3999V13.3986C14.3999 14.2428 13.7472 14.9345 12.9194 14.9956L12.8 15H3.20001C2.35653 15 1.66549 14.3467 1.60441 13.5181L1.60003 13.3986V6.99281H0.802369C0.0716813 6.99281 -0.262819 6.10594 0.240313 5.61964L0.310726 5.55859L7.01769 0.337341ZM8.00001 1.60144L2.90034 5.57142C3.08316 5.7197 3.20001 5.94624 3.20001 6.2001V13.3986H5.59999V9.39497C5.59999 8.06825 6.6745 6.99281 8.00001 6.99281C9.32543 6.99281 10.4 8.06825 10.4 9.39497V13.3986H12.8V6.2001C12.8 5.94623 12.9168 5.71969 13.0996 5.57142L8.00001 1.60144ZM8.00001 8.59425C7.55817 8.59425 7.20001 8.95273 7.20001 9.39497V13.3986H8.8V9.39497C8.8 8.95273 8.44176 8.59425 8.00001 8.59425Z" fill="#526581"/>
</svg>
