<svg width="82" height="61" viewBox="0 0 82 61" fill="none" xmlns="http://www.w3.org/2000/svg">
<path d="M38.4281 7.18066C41.1954 7.18066 43.4405 9.42474 43.4405 12.193V17.2054H48.7348C50.51 17.2054 52.1181 17.905 53.4652 19.1581L61.5372 27.2301C62.7903 28.4832 63.4899 30.1853 63.4899 31.9605V43.938C65.3382 43.938 66.8315 45.4313 66.8315 47.2796C66.8315 49.1279 65.3382 50.6211 63.4899 50.6211H60.1484C60.1484 56.1556 55.6581 60.6459 50.1236 60.6459C44.4952 60.6459 40.0989 56.1556 40.0989 50.6211H26.7326C26.7326 56.1556 22.2424 60.6459 16.7079 60.6459C11.0794 60.6459 6.68315 56.1556 6.68315 50.6211H5.01236C2.24408 50.6211 0 48.376 0 45.6088V12.193C0 9.42474 2.24408 7.18066 5.01236 7.18066H38.4281ZM43.4405 23.8885V33.9133H56.8068V31.9605L48.7348 23.8885H43.4405ZM16.7079 45.6088C13.9406 45.6088 11.6955 47.8539 11.6955 50.6211C11.6955 53.3884 13.9406 55.6335 16.7079 55.6335C19.4751 55.6335 21.7202 53.3884 21.7202 50.6211C21.7202 47.8539 19.4751 45.6088 16.7079 45.6088ZM50.1236 55.6335C52.8909 55.6335 55.136 53.3884 55.136 50.6211C55.136 47.8539 52.8909 45.6088 50.1236 45.6088C47.3564 45.6088 45.1113 47.8539 45.1113 50.6211C45.1113 53.3884 47.3564 55.6335 50.1236 55.6335Z" fill="#002F86"/>
<path d="M81.6399 22.8931L76.4832 17.7374C76.2505 17.5047 75.935 17.3754 75.604 17.3754H74.761C76.1884 15.5498 77.0366 13.2541 77.0366 10.7561C77.0366 4.81435 72.2212 0 66.279 0C60.3367 0 55.5208 4.81435 55.5208 10.7561C55.5208 16.6979 60.3362 21.5123 66.279 21.5123C68.7769 21.5123 71.0736 20.6641 72.8992 19.2367V20.0797C72.8992 20.4107 73.0285 20.7262 73.2612 20.9589L78.4179 26.1146C78.9041 26.6007 79.6902 26.6007 80.1711 26.1146L81.6347 24.651C82.1209 24.1648 82.1209 23.3792 81.6399 22.8931ZM66.279 18.2024C62.1654 18.2024 58.8317 14.8749 58.8317 10.7561C58.8317 6.64306 62.1597 3.3099 66.279 3.3099C70.3925 3.3099 73.7262 6.63738 73.7262 10.7561C73.7262 14.8692 70.3982 18.2024 66.279 18.2024ZM66.28 5.79232C64.171 5.79232 62.4612 7.50157 62.4612 9.61059C62.4612 11.3152 64.9571 14.4229 65.9133 15.5508C65.9582 15.6045 66.0142 15.6477 66.0776 15.6773C66.141 15.7069 66.21 15.7222 66.28 15.7222C66.3499 15.7222 66.419 15.7069 66.4824 15.6773C66.5457 15.6477 66.6018 15.6045 66.6467 15.5508C67.6029 14.4229 70.0988 11.3157 70.0988 9.61059C70.0988 7.50157 68.389 5.79232 66.28 5.79232ZM66.28 10.7572C65.5942 10.7572 65.0388 10.2012 65.0388 9.51595C65.0388 8.83018 65.5947 8.27474 66.28 8.27474C66.9652 8.27474 67.5212 8.83018 67.5212 9.51595C67.5212 10.2012 66.9652 10.7572 66.28 10.7572Z" fill="#002F86"/>
</svg>
