<svg width="44" height="32" viewBox="0 0 44 32" fill="none" xmlns="http://www.w3.org/2000/svg">
<path d="M22.4215 9.0784V9.5784H22.9215H25.7151C26.5076 9.5784 27.2356 9.88675 27.8641 10.4689L32.1168 14.7215C32.6834 15.2881 33.0007 16.0588 33.0007 16.864V23.184V23.684H33.5007C34.1998 23.684 34.7639 24.248 34.7639 24.9471C34.7639 25.6463 34.1998 26.2103 33.5007 26.2103H31.7375H31.2375V26.7103C31.2375 29.3545 29.0921 31.4999 26.4479 31.4999C23.7572 31.4999 21.6583 29.3576 21.6583 26.7103V26.2103H21.1583H14.1055H13.6055V26.7103C13.6055 29.3545 11.4601 31.4999 8.81597 31.4999C6.12529 31.4999 4.02639 29.3576 4.02639 26.7103V26.2103H3.52639H2.64479C1.46031 26.2103 0.5 25.2496 0.5 24.0655V6.43361C0.5 5.24906 1.46024 4.28882 2.64479 4.28882H20.2767C21.4608 4.28882 22.4215 5.24912 22.4215 6.43361V9.0784ZM22.9215 12.1048H22.4215V12.6048V17.8944V18.3944H22.9215H29.9743H30.4743V17.8944V16.864V16.6569L30.3278 16.5104L26.0686 12.2512L25.9222 12.1048H25.7151H22.9215ZM8.81597 23.5655C7.07968 23.5655 5.67118 24.9741 5.67118 26.7103C5.67118 28.4466 7.07968 29.8551 8.81597 29.8551C10.5523 29.8551 11.9608 28.4466 11.9608 26.7103C11.9608 24.9741 10.5523 23.5655 8.81597 23.5655ZM26.4479 29.8551C28.1842 29.8551 29.5927 28.4466 29.5927 26.7103C29.5927 24.9741 28.1842 23.5655 26.4479 23.5655C24.7116 23.5655 23.3031 24.9741 23.3031 26.7103C23.3031 28.4466 24.7116 29.8551 26.4479 29.8551Z" stroke="black"/>
<path d="M40.0031 9.71277L40.0031 9.7128L42.7221 12.4313C42.7223 12.4315 42.7225 12.4317 42.7227 12.4319C42.7829 12.4933 42.7826 12.5923 42.7213 12.6536L41.949 13.4259L41.949 13.4259L41.9471 13.4278C41.8901 13.4855 41.7933 13.4882 41.731 13.4259L41.731 13.4259L39.0101 10.7055C38.9824 10.6777 38.9655 10.639 38.9655 10.5951V10.1503V9.66819H39.4479H39.8927C39.9366 9.66819 39.9753 9.68502 40.0031 9.71277ZM38.6612 9.36262L38.1576 9.75642C37.2793 10.4431 36.1751 10.851 34.9723 10.851C32.1126 10.851 29.7957 8.53448 29.7957 5.67551C29.7957 2.81656 32.1129 0.5 34.9723 0.5C37.8317 0.5 40.1486 2.81653 40.1486 5.67551C40.1486 6.87827 39.7407 7.98194 39.054 8.86022L38.6612 9.36262ZM35.8485 6.47779C35.555 6.92428 35.2222 7.35182 34.9729 7.65646C34.7235 7.35181 34.3908 6.92422 34.0972 6.4777C33.909 6.19134 33.7436 5.90727 33.6269 5.64999C33.5057 5.38283 33.4579 5.18937 33.4579 5.07106C33.4579 4.23446 34.1361 3.55634 34.9729 3.55634C35.8096 3.55634 36.4879 4.23446 36.4879 5.07106C36.4879 5.18946 36.4401 5.38296 36.3189 5.65011C36.2021 5.9074 36.0368 6.19145 35.8485 6.47779ZM30.5428 5.67551C30.5428 8.12524 32.526 10.1045 34.9723 10.1045C37.4222 10.1045 39.4019 8.12174 39.4019 5.67551C39.4019 3.22578 37.4187 1.24648 34.9723 1.24648C32.5225 1.24648 30.5428 3.22928 30.5428 5.67551ZM33.8179 5.02112C33.8179 5.65871 34.3347 6.17605 34.9729 6.17605C35.6106 6.17605 36.1278 5.65884 36.1278 5.02112C36.1278 4.383 35.6104 3.8662 34.9729 3.8662C34.3353 3.8662 33.8179 4.383 33.8179 5.02112Z" stroke="black"/>
</svg>
