<svg width="52" height="63" viewBox="0 0 52 63" fill="none" xmlns="http://www.w3.org/2000/svg">
<mask id="path-1-inside-1_1130_78" fill="white">
<path d="M25.9241 0.933594C19.7024 0.933594 14.6626 7.26787 14.6626 15.0736C14.6626 22.8782 19.7036 29.2068 25.9241 29.2068C32.1411 29.2068 37.1843 22.8771 37.1843 15.0736C37.1843 7.26787 32.1422 0.933594 25.9241 0.933594ZM25.9241 26.7788C20.7727 26.7788 16.5985 21.539 16.5985 15.0736C16.5985 8.6083 20.7727 3.36614 25.9241 3.36614C31.0719 3.36614 35.2484 8.6083 35.2484 15.0736C35.2484 21.539 31.0719 26.7788 25.9241 26.7788Z"/>
</mask>
<path d="M25.9241 0.933594C19.7024 0.933594 14.6626 7.26787 14.6626 15.0736C14.6626 22.8782 19.7036 29.2068 25.9241 29.2068C32.1411 29.2068 37.1843 22.8771 37.1843 15.0736C37.1843 7.26787 32.1422 0.933594 25.9241 0.933594ZM25.9241 26.7788C20.7727 26.7788 16.5985 21.539 16.5985 15.0736C16.5985 8.6083 20.7727 3.36614 25.9241 3.36614C31.0719 3.36614 35.2484 8.6083 35.2484 15.0736C35.2484 21.539 31.0719 26.7788 25.9241 26.7788Z" fill="white"/>
<path d="M25.9241 -0.0664062C18.9496 -0.0664062 13.6626 6.94021 13.6626 15.0736H15.6626C15.6626 7.59553 20.4553 1.93359 25.9241 1.93359V-0.0664062ZM13.6626 15.0736C13.6626 23.2066 18.9513 30.2068 25.9241 30.2068V28.2068C20.4559 28.2068 15.6626 22.5499 15.6626 15.0736H13.6626ZM25.9241 30.2068C32.8934 30.2068 38.1843 23.2055 38.1843 15.0736H36.1843C36.1843 22.5487 31.3888 28.2068 25.9241 28.2068V30.2068ZM38.1843 15.0736C38.1843 6.94014 32.895 -0.0664062 25.9241 -0.0664062V1.93359C31.3894 1.93359 36.1843 7.5956 36.1843 15.0736H38.1843ZM25.9241 25.7788C21.5251 25.7788 17.5985 21.2107 17.5985 15.0736H15.5985C15.5985 21.8672 20.0204 27.7788 25.9241 27.7788V25.7788ZM17.5985 15.0736C17.5985 8.93631 21.5253 4.36614 25.9241 4.36614V2.36614C20.0201 2.36614 15.5985 8.28029 15.5985 15.0736H17.5985ZM25.9241 4.36614C30.3194 4.36614 34.2484 8.9364 34.2484 15.0736H36.2484C36.2484 8.2802 31.8245 2.36614 25.9241 2.36614V4.36614ZM34.2484 15.0736C34.2484 21.2106 30.3197 25.7788 25.9241 25.7788V27.7788C31.8242 27.7788 36.2484 21.8673 36.2484 15.0736H34.2484Z" fill="#2E2E2E" mask="url(#path-1-inside-1_1130_78)"/>
<mask id="path-3-inside-2_1130_78" fill="white">
<path d="M51.3417 50.2802C51.3417 52.3839 50.0024 54.0865 48.3435 54.0865H3.52305C1.86074 54.0865 0.515708 52.3851 0.515708 50.2802V18.879C0.515708 16.7787 1.86074 15.075 3.52305 15.075H48.3435C50.0024 15.075 51.3417 16.7775 51.3417 18.879V50.2802ZM45.3155 57.7744C48.6447 57.7744 51.3393 58.1469 51.3393 58.6067V61.7681C51.3393 62.2245 48.6435 62.6004 45.3155 62.6004H6.53384C3.21151 62.6004 0.511108 62.2256 0.511108 61.7681V58.6067C0.511108 58.148 3.21151 57.7744 6.53384 57.7744H45.3155Z"/>
</mask>
<path d="M51.3417 50.2802C51.3417 52.3839 50.0024 54.0865 48.3435 54.0865H3.52305C1.86074 54.0865 0.515708 52.3851 0.515708 50.2802V18.879C0.515708 16.7787 1.86074 15.075 3.52305 15.075H48.3435C50.0024 15.075 51.3417 16.7775 51.3417 18.879V50.2802ZM45.3155 57.7744C48.6447 57.7744 51.3393 58.1469 51.3393 58.6067V61.7681C51.3393 62.2245 48.6435 62.6004 45.3155 62.6004H6.53384C3.21151 62.6004 0.511108 62.2256 0.511108 61.7681V58.6067C0.511108 58.148 3.21151 57.7744 6.53384 57.7744H45.3155Z" fill="white"/>
<path d="M50.3417 50.2802C50.3417 52.0676 49.2405 53.0865 48.3435 53.0865V55.0865C50.7642 55.0865 52.3417 52.7003 52.3417 50.2802H50.3417ZM48.3435 53.0865H3.52305V55.0865H48.3435V53.0865ZM3.52305 53.0865C2.61965 53.0865 1.51571 52.0651 1.51571 50.2802H-0.484292C-0.484292 52.7051 1.10182 55.0865 3.52305 55.0865V53.0865ZM1.51571 50.2802V18.879H-0.484292V50.2802H1.51571ZM1.51571 18.879C1.51571 17.0987 2.61965 16.075 3.52305 16.075V14.075C1.10182 14.075 -0.484292 16.4586 -0.484292 18.879H1.51571ZM3.52305 16.075H48.3435V14.075H3.52305V16.075ZM48.3435 16.075C49.2409 16.075 50.3417 17.0942 50.3417 18.879H52.3417C52.3417 16.4608 50.7639 14.075 48.3435 14.075V16.075ZM50.3417 18.879V50.2802H52.3417V18.879H50.3417ZM45.3155 58.7744C46.9491 58.7744 48.4072 58.8661 49.439 59.0087C49.9623 59.081 50.3348 59.161 50.5556 59.2332C50.6728 59.2715 50.6896 59.2894 50.6571 59.2674C50.639 59.2552 50.5716 59.2079 50.5022 59.1134C50.427 59.011 50.3393 58.8368 50.3393 58.6067H52.3393C52.3393 58.0287 51.9268 57.7116 51.777 57.6104C51.5842 57.4801 51.3644 57.3934 51.177 57.3322C50.7885 57.2052 50.2792 57.1058 49.7128 57.0275C48.5649 56.8689 47.0111 56.7744 45.3155 56.7744V58.7744ZM50.3393 58.6067V61.7681H52.3393V58.6067H50.3393ZM50.3393 61.7681C50.3393 61.5357 50.4285 61.3605 50.504 61.2584C50.5737 61.1641 50.6411 61.1171 50.6589 61.1052C50.6909 61.0836 50.6735 61.1017 50.556 61.14C50.3346 61.2122 49.9616 61.2923 49.4382 61.3649C48.4061 61.5079 46.9481 61.6004 45.3155 61.6004V63.6004C47.0109 63.6004 48.5648 63.505 49.7127 63.3459C50.2792 63.2674 50.7882 63.168 51.1763 63.0414C51.3635 62.9803 51.5827 62.8941 51.7752 62.7646C51.9226 62.6655 52.3393 62.3487 52.3393 61.7681H50.3393ZM45.3155 61.6004H6.53384V63.6004H45.3155V61.6004ZM6.53384 61.6004C4.90401 61.6004 3.44623 61.5082 2.41367 61.3653C1.89001 61.2928 1.51667 61.2127 1.29496 61.1404C1.17726 61.1021 1.15983 61.084 1.19178 61.1055C1.2095 61.1174 1.27698 61.1644 1.34665 61.2588C1.4221 61.3609 1.51111 61.536 1.51111 61.7681H-0.488892C-0.488892 62.3486 -0.0723799 62.6655 0.0754775 62.765C0.268085 62.8945 0.487585 62.9808 0.67495 63.0419C1.06339 63.1686 1.5728 63.268 2.13953 63.3464C3.28776 63.5053 4.84135 63.6004 6.53384 63.6004V61.6004ZM1.51111 61.7681V58.6067H-0.488892V61.7681H1.51111ZM1.51111 58.6067C1.51111 58.8381 1.42258 59.0128 1.3472 59.1151C1.27762 59.2095 1.21016 59.2566 1.19234 59.2686C1.16024 59.2902 1.17749 59.2722 1.29512 59.2338C1.51667 59.1616 1.88987 59.0815 2.41354 59.0091C3.44608 58.8664 4.90387 58.7744 6.53384 58.7744V56.7744C4.84148 56.7744 3.28791 56.8692 2.13966 57.028C1.57294 57.1063 1.06339 57.2057 0.674799 57.3325C0.487347 57.3936 0.267673 57.48 0.0749191 57.6099C-0.0736771 57.71 -0.488892 58.027 -0.488892 58.6067H1.51111ZM6.53384 58.7744H45.3155V56.7744H6.53384V58.7744Z" fill="#2E2E2E" mask="url(#path-3-inside-2_1130_78)"/>
</svg>
