<svg width="67" height="60" viewBox="0 0 67 60" fill="none" xmlns="http://www.w3.org/2000/svg">
<path d="M10.1929 29.4702V28.4702H9.19293H2.70685L32.0447 1.92588L32.045 1.92558C32.418 1.58778 32.9051 1.3999 33.4111 1.3999C33.9171 1.3999 34.4042 1.58778 34.7772 1.92558L34.7775 1.92588L64.1154 28.4702H57.6293H56.6293V29.4702V56.5869C56.6293 57.1193 56.4169 57.6308 56.0372 58.0086C55.6574 58.3867 55.1412 58.5999 54.602 58.5999H12.2202C11.681 58.5999 11.1649 58.3867 10.785 58.0086C10.4054 57.6308 10.1929 57.1193 10.1929 56.5869V29.4702ZM19.7884 34.4961H18.7884V35.4961C18.7884 39.3588 20.3301 43.0623 23.073 45.7921C25.8156 48.5218 29.5344 50.0545 33.4111 50.0545C37.2878 50.0545 41.0066 48.5218 43.7493 45.7921C46.4921 43.0623 48.0338 39.3588 48.0338 35.4961V34.4961H47.0338H40.9793H39.9793V35.4961C39.9793 37.2271 39.2885 38.8881 38.0572 40.1136C36.8258 41.3392 35.1546 42.0285 33.4111 42.0285C31.6676 42.0285 29.9964 41.3392 28.765 40.1136C27.5338 38.8881 26.8429 37.2271 26.8429 35.4961V34.4961H25.8429H19.7884Z" fill="white" stroke="#2E2E2E" stroke-width="2"/>
</svg>
