<svg width="67" height="67" viewBox="0 0 67 67" fill="none" xmlns="http://www.w3.org/2000/svg">
<circle opacity="0.15" cx="33.3209" cy="33.3209" r="33.3209" fill="#4A3AFF"/>
<path d="M36.8766 45.0118L34.9342 44.6031C34.7576 44.5691 34.6163 44.481 34.5104 44.3389C34.4044 44.1972 34.3632 44.0413 34.3868 43.871L34.581 41.947L33.2567 40.4828C33.1389 40.3579 33.0801 40.2103 33.0801 40.0401C33.0801 39.8698 33.1389 39.7222 33.2567 39.5974L34.581 38.1331L34.3868 36.2091C34.3632 36.0389 34.4044 35.8829 34.5104 35.7413C34.6163 35.5991 34.7576 35.5111 34.9342 35.477L36.8766 35.0684L37.9007 33.3998C37.9949 33.2522 38.1244 33.1558 38.2892 33.1103C38.454 33.0649 38.6188 33.0706 38.7836 33.1274L40.6201 33.8765L42.4565 33.1274C42.6213 33.0706 42.7861 33.0649 42.9509 33.1103C43.1157 33.1558 43.2452 33.2522 43.3394 33.3998L44.3636 35.0684L46.306 35.477C46.4826 35.5111 46.6238 35.5991 46.7298 35.7413C46.8357 35.8829 46.8769 36.0389 46.8534 36.2091L46.6591 38.1331L47.9835 39.5974C48.1012 39.7222 48.1601 39.8698 48.1601 40.0401C48.1601 40.2103 48.1012 40.3579 47.9835 40.4828L46.6591 41.947L46.8534 43.871C46.8769 44.0413 46.8357 44.1972 46.7298 44.3389C46.6238 44.481 46.4826 44.5691 46.306 44.6031L44.3636 45.0118L43.3394 46.6804C43.2452 46.8279 43.1157 46.9244 42.9509 46.9698C42.7861 47.0152 42.6213 47.0095 42.4565 46.9528L40.6201 46.2036L38.7836 46.9528C38.6188 47.0095 38.454 47.0152 38.2892 46.9698C38.1244 46.9244 37.9949 46.8279 37.9007 46.6804L36.8766 45.0118ZM39.384 41.9811C39.5135 42.1059 39.6783 42.1684 39.8784 42.1684C40.0786 42.1684 40.2434 42.1059 40.3729 41.9811L43.3747 39.0866C43.516 38.9504 43.5866 38.7885 43.5866 38.601C43.5866 38.4139 43.516 38.2523 43.3747 38.1161C43.2335 37.9799 43.0658 37.9118 42.8718 37.9118C42.6774 37.9118 42.5095 37.9799 42.3682 38.1161L39.8784 40.5168L38.8543 39.5463C38.713 39.4215 38.5454 39.3617 38.3514 39.3672C38.1569 39.3731 37.9949 39.4385 37.8654 39.5633C37.7359 39.6882 37.6712 39.8471 37.6712 40.0401C37.6712 40.233 37.7359 40.392 37.8654 40.5168L39.384 41.9811Z" fill="#4A3AFF"/>
<path d="M33.08 33.0812C33.2238 33.0812 33.3654 33.0939 33.5022 33.1194C32.6353 33.9322 31.9446 34.9144 31.4729 36.005C31.0012 37.0957 30.7585 38.2717 30.76 39.46C30.76 40.975 31.1474 42.3994 31.8272 43.6395C30.2322 44.3865 28.3449 44.68 26.7 44.68C23.0472 44.68 18.1984 43.2323 18.0058 38.5877L18 38.3V35.4C18 34.1774 18.9466 33.1751 20.146 33.0858L20.32 33.08L33.08 33.0812ZM44.68 25.54C44.68 26.9244 44.13 28.2522 43.1511 29.2311C42.1721 30.21 40.8444 30.76 39.46 30.76C38.0756 30.76 36.7478 30.21 35.7689 29.2311C34.79 28.2522 34.24 26.9244 34.24 25.54C34.24 24.1556 34.79 22.8278 35.7689 21.8489C36.7478 20.87 38.0756 20.32 39.46 20.32C40.8444 20.32 42.1721 20.87 43.1511 21.8489C44.13 22.8278 44.68 24.1556 44.68 25.54ZM26.7 18C27.5379 18.0001 28.3676 18.1652 29.1417 18.4859C29.9158 18.8066 30.6191 19.2767 31.2116 19.8692C31.804 20.4618 32.2739 21.1652 32.5945 21.9394C32.9151 22.7135 33.0801 23.5432 33.08 24.3812C33.0799 25.2191 32.9148 26.0488 32.5941 26.8229C32.2734 27.597 31.8033 28.3003 31.2108 28.8927C30.6182 29.4852 29.9148 29.9551 29.1406 30.2757C28.3665 30.5963 27.5367 30.7612 26.6988 30.7612C25.0066 30.761 23.3837 30.0886 22.1873 28.8919C20.9908 27.6952 20.3187 26.0722 20.3188 24.38C20.319 22.6878 20.9914 21.0649 22.1881 19.8684C23.3848 18.6719 25.0078 17.9998 26.7 18Z" fill="#4A3AFF"/>
</svg>
