<svg width="28" height="20" viewBox="0 0 28 20" fill="none" xmlns="http://www.w3.org/2000/svg">
<path d="M27.0405 5.13364V15.9808C27.0405 16.9899 26.5954 17.9577 25.803 18.6713C25.0107 19.3849 23.936 19.7858 22.8154 19.7858H4.22508C3.10452 19.7858 2.02985 19.3849 1.2375 18.6713C0.445141 17.9577 0 16.9899 0 15.9808V5.13364L13.091 12.0708C13.221 12.1399 13.3693 12.1763 13.5203 12.1763C13.6713 12.1763 13.8195 12.1399 13.9495 12.0708L27.0405 5.13364ZM22.8154 4.71094e-08C23.8551 -0.0001472 24.8582 0.344891 25.6331 0.969106C26.4079 1.59332 26.9 2.45289 27.0152 3.38336L13.5203 10.5321L0.0253507 3.38336C0.14054 2.45289 0.63262 1.59332 1.40745 0.969106C2.18228 0.344891 3.18546 -0.0001472 4.22508 4.71094e-08H22.8154Z" fill="white"/>
</svg>
