<svg width="12" height="14" viewBox="0 0 12 14" fill="none" xmlns="http://www.w3.org/2000/svg">
<path d="M6.00001 14L1.78201 9.0255C1.7234 8.95081 1.66539 8.87564 1.60801 8.8C0.887496 7.85089 0.498259 6.69161 0.500006 5.5C0.500006 4.04131 1.07947 2.64236 2.11092 1.61091C3.14237 0.579463 4.54132 0 6.00001 0C7.4587 0 8.85764 0.579463 9.88909 1.61091C10.9205 2.64236 11.5 4.04131 11.5 5.5C11.5018 6.69107 11.1127 7.84982 10.3925 8.7985L10.392 8.8C10.392 8.8 10.242 8.997 10.2195 9.0235L6.00001 14ZM2.40601 8.1975C2.40701 8.1975 2.52301 8.3515 2.54951 8.3845L6.00001 12.454L9.45501 8.379C9.47701 8.3515 9.59401 8.1965 9.59451 8.196C10.1831 7.42056 10.5012 6.47352 10.5 5.5C10.5 4.30653 10.0259 3.16193 9.18199 2.31802C8.33807 1.47411 7.19348 1 6.00001 1C4.80653 1 3.66194 1.47411 2.81803 2.31802C1.97411 3.16193 1.50001 4.30653 1.50001 5.5C1.49896 6.47412 1.81739 7.42171 2.40651 8.1975H2.40601Z" fill="#526581"/>
<path d="M8.5 8H7.5V4H4.5V8H3.5V4C3.50026 3.73486 3.60571 3.48066 3.79319 3.29319C3.98066 3.10571 4.23486 3.00026 4.5 3H7.5C7.76514 3.00026 8.01934 3.10571 8.20681 3.29319C8.39429 3.48066 8.49974 3.73486 8.5 4V8Z" fill="#526581"/>
<path d="M5.5 7H6.5V8H5.5V7ZM5.5 5H6.5V6H5.5V5Z" fill="#526581"/>
</svg>
