<svg width="170" height="41" viewBox="0 0 170 41" fill="none" xmlns="http://www.w3.org/2000/svg">
<path d="M29.4609 7.85547L24.8203 22H21.082L27.4219 4.9375H29.8008L29.4609 7.85547ZM33.3164 22L28.6641 7.85547L28.2891 4.9375H30.6914L37.0664 22H33.3164ZM33.1055 15.6484V18.4023H24.0938V15.6484H33.1055ZM45.293 18.4961C45.293 18.2539 45.2227 18.0352 45.082 17.8398C44.9414 17.6445 44.6797 17.4648 44.2969 17.3008C43.9219 17.1289 43.3789 16.9727 42.668 16.832C42.0273 16.6914 41.4297 16.5156 40.875 16.3047C40.3281 16.0859 39.8516 15.8242 39.4453 15.5195C39.0469 15.2148 38.7344 14.8555 38.5078 14.4414C38.2812 14.0195 38.168 13.5391 38.168 13C38.168 12.4688 38.2812 11.9688 38.5078 11.5C38.7422 11.0312 39.0742 10.6172 39.5039 10.2578C39.9414 9.89062 40.4727 9.60547 41.0977 9.40234C41.7305 9.19141 42.4414 9.08594 43.2305 9.08594C44.332 9.08594 45.2773 9.26172 46.0664 9.61328C46.8633 9.96484 47.4727 10.4492 47.8945 11.0664C48.3242 11.6758 48.5391 12.3711 48.5391 13.1523H45.1641C45.1641 12.8242 45.0938 12.5312 44.9531 12.2734C44.8203 12.0078 44.6094 11.8008 44.3203 11.6523C44.0391 11.4961 43.6719 11.418 43.2188 11.418C42.8438 11.418 42.5195 11.4844 42.2461 11.6172C41.9727 11.7422 41.7617 11.9141 41.6133 12.1328C41.4727 12.3438 41.4023 12.5781 41.4023 12.8359C41.4023 13.0312 41.4414 13.207 41.5195 13.3633C41.6055 13.5117 41.7422 13.6484 41.9297 13.7734C42.1172 13.8984 42.3594 14.0156 42.6562 14.125C42.9609 14.2266 43.3359 14.3203 43.7812 14.4062C44.6953 14.5938 45.5117 14.8398 46.2305 15.1445C46.9492 15.4414 47.5195 15.8477 47.9414 16.3633C48.3633 16.8711 48.5742 17.5391 48.5742 18.3672C48.5742 18.9297 48.4492 19.4453 48.1992 19.9141C47.9492 20.3828 47.5898 20.793 47.1211 21.1445C46.6523 21.4883 46.0898 21.7578 45.4336 21.9531C44.7852 22.1406 44.0547 22.2344 43.2422 22.2344C42.0625 22.2344 41.0625 22.0234 40.2422 21.6016C39.4297 21.1797 38.8125 20.6445 38.3906 19.9961C37.9766 19.3398 37.7695 18.668 37.7695 17.9805H40.9688C40.9844 18.4414 41.1016 18.8125 41.3203 19.0938C41.5469 19.375 41.832 19.5781 42.1758 19.7031C42.5273 19.8281 42.9062 19.8906 43.3125 19.8906C43.75 19.8906 44.1133 19.832 44.4023 19.7148C44.6914 19.5898 44.9102 19.4258 45.0586 19.2227C45.2148 19.0117 45.293 18.7695 45.293 18.4961ZM54.1406 3.98828V22H50.7656V3.98828H54.1406ZM62.1328 9.32031L56.625 15.6016L53.6719 18.5898L52.4414 16.1523L54.7852 13.1758L58.0781 9.32031H62.1328ZM58.6289 22L54.8789 16.1406L57.2109 14.1016L62.5195 22H58.6289Z" fill="#171C9B"/>
<path d="M77.6836 4.9375V22H74.168L67.3125 10.5625V22H63.7969V4.9375H67.3125L74.1797 16.3867V4.9375H77.6836ZM87.375 19.1406V13.4922C87.375 13.0859 87.3086 12.7383 87.1758 12.4492C87.043 12.1523 86.8359 11.9219 86.5547 11.7578C86.2812 11.5938 85.9258 11.5117 85.4883 11.5117C85.1133 11.5117 84.7891 11.5781 84.5156 11.7109C84.2422 11.8359 84.0312 12.0195 83.8828 12.2617C83.7344 12.4961 83.6602 12.7734 83.6602 13.0938H80.2852C80.2852 12.5547 80.4102 12.043 80.6602 11.5586C80.9102 11.0742 81.2734 10.6484 81.75 10.2812C82.2266 9.90625 82.793 9.61328 83.4492 9.40234C84.1133 9.19141 84.8555 9.08594 85.6758 9.08594C86.6602 9.08594 87.5352 9.25 88.3008 9.57812C89.0664 9.90625 89.668 10.3984 90.1055 11.0547C90.5508 11.7109 90.7734 12.5312 90.7734 13.5156V18.9414C90.7734 19.6367 90.8164 20.207 90.9023 20.6523C90.9883 21.0898 91.1133 21.4727 91.2773 21.8008V22H87.8672C87.7031 21.6562 87.5781 21.2266 87.4922 20.7109C87.4141 20.1875 87.375 19.6641 87.375 19.1406ZM87.8203 14.2773L87.8438 16.1875H85.957C85.5117 16.1875 85.125 16.2383 84.7969 16.3398C84.4688 16.4414 84.1992 16.5859 83.9883 16.7734C83.7773 16.9531 83.6211 17.1641 83.5195 17.4062C83.4258 17.6484 83.3789 17.9141 83.3789 18.2031C83.3789 18.4922 83.4453 18.7539 83.5781 18.9883C83.7109 19.2148 83.9023 19.3945 84.1523 19.5273C84.4023 19.6523 84.6953 19.7148 85.0312 19.7148C85.5391 19.7148 85.9805 19.6133 86.3555 19.4102C86.7305 19.207 87.0195 18.957 87.2227 18.6602C87.4336 18.3633 87.543 18.082 87.5508 17.8164L88.4414 19.2461C88.3164 19.5664 88.1445 19.8984 87.9258 20.2422C87.7148 20.5859 87.4453 20.9102 87.1172 21.2148C86.7891 21.5117 86.3945 21.7578 85.9336 21.9531C85.4727 22.1406 84.9258 22.2344 84.293 22.2344C83.4883 22.2344 82.7578 22.0742 82.1016 21.7539C81.4531 21.4258 80.9375 20.9766 80.5547 20.4062C80.1797 19.8281 79.9922 19.1719 79.9922 18.4375C79.9922 17.7734 80.1172 17.1836 80.3672 16.668C80.6172 16.1523 80.9844 15.7188 81.4688 15.3672C81.9609 15.0078 82.5742 14.7383 83.3086 14.5586C84.043 14.3711 84.8945 14.2773 85.8633 14.2773H87.8203ZM97.5 19.5391L100.312 9.32031H103.84L99.5625 22H97.4297L97.5 19.5391ZM95.5664 9.32031L98.3906 19.5508L98.4492 22H96.3047L92.0273 9.32031H95.5664ZM108.914 9.32031V22H105.527V9.32031H108.914ZM105.316 6.01562C105.316 5.52344 105.488 5.11719 105.832 4.79688C106.176 4.47656 106.637 4.31641 107.215 4.31641C107.785 4.31641 108.242 4.47656 108.586 4.79688C108.938 5.11719 109.113 5.52344 109.113 6.01562C109.113 6.50781 108.938 6.91406 108.586 7.23438C108.242 7.55469 107.785 7.71484 107.215 7.71484C106.637 7.71484 106.176 7.55469 105.832 7.23438C105.488 6.91406 105.316 6.50781 105.316 6.01562ZM119.73 9.32031H122.789V21.5781C122.789 22.7344 122.531 23.7148 122.016 24.5195C121.508 25.332 120.797 25.9453 119.883 26.3594C118.969 26.7812 117.906 26.9922 116.695 26.9922C116.164 26.9922 115.602 26.9219 115.008 26.7812C114.422 26.6406 113.859 26.4219 113.32 26.125C112.789 25.8281 112.344 25.4531 111.984 25L113.473 23.0078C113.863 23.4609 114.316 23.8125 114.832 24.0625C115.348 24.3203 115.918 24.4492 116.543 24.4492C117.152 24.4492 117.668 24.3359 118.09 24.1094C118.512 23.8906 118.836 23.5664 119.062 23.1367C119.289 22.7148 119.402 22.2031 119.402 21.6016V12.25L119.73 9.32031ZM111.199 15.8125V15.5664C111.199 14.5977 111.316 13.7188 111.551 12.9297C111.793 12.1328 112.133 11.4492 112.57 10.8789C113.016 10.3086 113.555 9.86719 114.188 9.55469C114.82 9.24219 115.535 9.08594 116.332 9.08594C117.176 9.08594 117.883 9.24219 118.453 9.55469C119.023 9.86719 119.492 10.3125 119.859 10.8906C120.227 11.4609 120.512 12.1367 120.715 12.918C120.926 13.6914 121.09 14.5391 121.207 15.4609V16C121.09 16.8828 120.914 17.7031 120.68 18.4609C120.445 19.2188 120.137 19.8828 119.754 20.4531C119.371 21.0156 118.895 21.4531 118.324 21.7656C117.762 22.0781 117.09 22.2344 116.309 22.2344C115.527 22.2344 114.82 22.0742 114.188 21.7539C113.562 21.4336 113.027 20.9844 112.582 20.4062C112.137 19.8281 111.793 19.1484 111.551 18.3672C111.316 17.5859 111.199 16.7344 111.199 15.8125ZM114.574 15.5664V15.8125C114.574 16.3359 114.625 16.8242 114.727 17.2773C114.828 17.7305 114.984 18.1328 115.195 18.4844C115.414 18.8281 115.684 19.0977 116.004 19.293C116.332 19.4805 116.719 19.5742 117.164 19.5742C117.781 19.5742 118.285 19.4453 118.676 19.1875C119.066 18.9219 119.359 18.5586 119.555 18.0977C119.75 17.6367 119.863 17.1055 119.895 16.5039V14.9688C119.879 14.4766 119.812 14.0352 119.695 13.6445C119.578 13.2461 119.414 12.9062 119.203 12.625C118.992 12.3438 118.719 12.125 118.383 11.9688C118.047 11.8125 117.648 11.7344 117.188 11.7344C116.742 11.7344 116.355 11.8359 116.027 12.0391C115.707 12.2344 115.438 12.5039 115.219 12.8477C115.008 13.1914 114.848 13.5977 114.738 14.0664C114.629 14.5273 114.574 15.0273 114.574 15.5664ZM132.258 19.1406V13.4922C132.258 13.0859 132.191 12.7383 132.059 12.4492C131.926 12.1523 131.719 11.9219 131.438 11.7578C131.164 11.5938 130.809 11.5117 130.371 11.5117C129.996 11.5117 129.672 11.5781 129.398 11.7109C129.125 11.8359 128.914 12.0195 128.766 12.2617C128.617 12.4961 128.543 12.7734 128.543 13.0938H125.168C125.168 12.5547 125.293 12.043 125.543 11.5586C125.793 11.0742 126.156 10.6484 126.633 10.2812C127.109 9.90625 127.676 9.61328 128.332 9.40234C128.996 9.19141 129.738 9.08594 130.559 9.08594C131.543 9.08594 132.418 9.25 133.184 9.57812C133.949 9.90625 134.551 10.3984 134.988 11.0547C135.434 11.7109 135.656 12.5312 135.656 13.5156V18.9414C135.656 19.6367 135.699 20.207 135.785 20.6523C135.871 21.0898 135.996 21.4727 136.16 21.8008V22H132.75C132.586 21.6562 132.461 21.2266 132.375 20.7109C132.297 20.1875 132.258 19.6641 132.258 19.1406ZM132.703 14.2773L132.727 16.1875H130.84C130.395 16.1875 130.008 16.2383 129.68 16.3398C129.352 16.4414 129.082 16.5859 128.871 16.7734C128.66 16.9531 128.504 17.1641 128.402 17.4062C128.309 17.6484 128.262 17.9141 128.262 18.2031C128.262 18.4922 128.328 18.7539 128.461 18.9883C128.594 19.2148 128.785 19.3945 129.035 19.5273C129.285 19.6523 129.578 19.7148 129.914 19.7148C130.422 19.7148 130.863 19.6133 131.238 19.4102C131.613 19.207 131.902 18.957 132.105 18.6602C132.316 18.3633 132.426 18.082 132.434 17.8164L133.324 19.2461C133.199 19.5664 133.027 19.8984 132.809 20.2422C132.598 20.5859 132.328 20.9102 132 21.2148C131.672 21.5117 131.277 21.7578 130.816 21.9531C130.355 22.1406 129.809 22.2344 129.176 22.2344C128.371 22.2344 127.641 22.0742 126.984 21.7539C126.336 21.4258 125.82 20.9766 125.438 20.4062C125.062 19.8281 124.875 19.1719 124.875 18.4375C124.875 17.7734 125 17.1836 125.25 16.668C125.5 16.1523 125.867 15.7188 126.352 15.3672C126.844 15.0078 127.457 14.7383 128.191 14.5586C128.926 14.3711 129.777 14.2773 130.746 14.2773H132.703ZM144.469 9.32031V11.7109H137.086V9.32031H144.469ZM138.914 6.19141H142.289V18.1797C142.289 18.5469 142.336 18.8281 142.43 19.0234C142.531 19.2188 142.68 19.3555 142.875 19.4336C143.07 19.5039 143.316 19.5391 143.613 19.5391C143.824 19.5391 144.012 19.5312 144.176 19.5156C144.348 19.4922 144.492 19.4688 144.609 19.4453L144.621 21.9297C144.332 22.0234 144.02 22.0977 143.684 22.1523C143.348 22.207 142.977 22.2344 142.57 22.2344C141.828 22.2344 141.18 22.1133 140.625 21.8711C140.078 21.6211 139.656 21.2227 139.359 20.6758C139.062 20.1289 138.914 19.4102 138.914 18.5195V6.19141ZM145.547 15.7891V15.543C145.547 14.6133 145.68 13.7578 145.945 12.9766C146.211 12.1875 146.598 11.5039 147.105 10.9258C147.613 10.3477 148.238 9.89844 148.98 9.57812C149.723 9.25 150.574 9.08594 151.535 9.08594C152.496 9.08594 153.352 9.25 154.102 9.57812C154.852 9.89844 155.48 10.3477 155.988 10.9258C156.504 11.5039 156.895 12.1875 157.16 12.9766C157.426 13.7578 157.559 14.6133 157.559 15.543V15.7891C157.559 16.7109 157.426 17.5664 157.16 18.3555C156.895 19.1367 156.504 19.8203 155.988 20.4062C155.48 20.9844 154.855 21.4336 154.113 21.7539C153.371 22.0742 152.52 22.2344 151.559 22.2344C150.598 22.2344 149.742 22.0742 148.992 21.7539C148.25 21.4336 147.621 20.9844 147.105 20.4062C146.598 19.8203 146.211 19.1367 145.945 18.3555C145.68 17.5664 145.547 16.7109 145.547 15.7891ZM148.922 15.543V15.7891C148.922 16.3203 148.969 16.8164 149.062 17.2773C149.156 17.7383 149.305 18.1445 149.508 18.4961C149.719 18.8398 149.992 19.1094 150.328 19.3047C150.664 19.5 151.074 19.5977 151.559 19.5977C152.027 19.5977 152.43 19.5 152.766 19.3047C153.102 19.1094 153.371 18.8398 153.574 18.4961C153.777 18.1445 153.926 17.7383 154.02 17.2773C154.121 16.8164 154.172 16.3203 154.172 15.7891V15.543C154.172 15.0273 154.121 14.543 154.02 14.0898C153.926 13.6289 153.773 13.2227 153.562 12.8711C153.359 12.5117 153.09 12.2305 152.754 12.0273C152.418 11.8242 152.012 11.7227 151.535 11.7227C151.059 11.7227 150.652 11.8242 150.316 12.0273C149.988 12.2305 149.719 12.5117 149.508 12.8711C149.305 13.2227 149.156 13.6289 149.062 14.0898C148.969 14.543 148.922 15.0273 148.922 15.543ZM163.008 12.0859V22H159.633V9.32031H162.809L163.008 12.0859ZM166.828 9.23828L166.77 12.3672C166.605 12.3438 166.406 12.3242 166.172 12.3086C165.945 12.2852 165.738 12.2734 165.551 12.2734C165.074 12.2734 164.66 12.3359 164.309 12.4609C163.965 12.5781 163.676 12.7539 163.441 12.9883C163.215 13.2227 163.043 13.5078 162.926 13.8438C162.816 14.1797 162.754 14.5625 162.738 14.9922L162.059 14.7812C162.059 13.9609 162.141 13.207 162.305 12.5195C162.469 11.8242 162.707 11.2188 163.02 10.7031C163.34 10.1875 163.73 9.78906 164.191 9.50781C164.652 9.22656 165.18 9.08594 165.773 9.08594C165.961 9.08594 166.152 9.10156 166.348 9.13281C166.543 9.15625 166.703 9.19141 166.828 9.23828Z" fill="#FF7612"/>
<path d="M53.0448 30.65V38H55.8483C58.2213 38 59.7438 36.5615 59.7438 34.325C59.7438 32.0885 58.2213 30.65 55.8483 30.65H53.0448ZM55.8483 31.5267C57.775 31.5267 58.7725 32.6502 58.7725 34.325C58.7725 35.9892 57.775 37.1232 55.8483 37.1232H53.9688V31.5267H55.8483ZM62.1414 33.0125H61.2857V38H62.1414V33.0125ZM61.7057 30.6447C61.3644 30.6447 61.1019 30.9125 61.1019 31.259C61.1019 31.6002 61.3644 31.8575 61.7057 31.8575C62.0469 31.8575 62.3199 31.6002 62.3199 31.259C62.3199 30.9125 62.0469 30.6447 61.7057 30.6447ZM67.6947 33.4535C67.2117 33.1227 66.4925 32.9127 65.705 32.9127C64.4922 32.9127 63.6995 33.4902 63.6995 34.4457C63.6995 35.2017 64.2402 35.7057 65.3585 35.8422L65.936 35.9105C66.6132 35.9945 66.9387 36.2255 66.9387 36.593C66.9387 37.0865 66.4347 37.3542 65.6157 37.3542C64.781 37.3542 64.2822 37.1127 63.9095 36.824L63.5105 37.4645C64.1667 37.958 64.9962 38.105 65.6105 38.105C66.9702 38.105 67.8207 37.4907 67.8207 36.5405C67.8207 35.7162 67.196 35.27 66.1355 35.1282L65.558 35.0547C64.9542 34.9812 64.592 34.7975 64.592 34.3985C64.592 33.947 65.033 33.6582 65.7155 33.6582C66.3717 33.6582 67.007 33.905 67.322 34.1202L67.6947 33.4535ZM71.7957 32.9075C71.0082 32.9075 70.4254 33.212 70.0369 33.6792V33.0125H69.1812V40.1H70.0369V37.3332C70.4254 37.8005 71.0082 38.105 71.7957 38.105C73.1922 38.105 74.2894 37.013 74.2894 35.5062C74.2894 33.9995 73.1922 32.9075 71.7957 32.9075ZM71.6959 33.716C72.7144 33.716 73.4074 34.514 73.4074 35.5062C73.4074 36.4985 72.7302 37.3017 71.6959 37.3017C70.6879 37.3017 69.9844 36.53 69.9844 35.5062C69.9844 34.4877 70.6879 33.716 71.6959 33.716ZM80.4587 33.0125H79.5977V33.6845C79.2039 33.212 78.6212 32.9075 77.8389 32.9075C76.4372 32.9075 75.3452 33.9995 75.3452 35.5062C75.3452 37.013 76.4372 38.105 77.8389 38.105C78.6212 38.105 79.2039 37.8005 79.5977 37.3332V38H80.4587V33.0125ZM77.9387 33.716C78.9467 33.716 79.6502 34.4877 79.6502 35.5062C79.6502 36.53 78.9467 37.3017 77.9387 37.3017C76.9149 37.3017 76.2219 36.4985 76.2219 35.5062C76.2219 34.514 76.8992 33.716 77.9387 33.716ZM85.6617 33.0125H83.5669V31.448H82.7059V33.0125H81.6402V33.7947H82.7059V36.2412C82.7059 37.5117 83.3517 38.105 84.4332 38.105C85.0474 38.105 85.5462 37.8897 85.9294 37.6115L85.5252 36.9657C85.2417 37.16 84.8742 37.3017 84.5067 37.3017C83.9659 37.3017 83.5669 36.9762 83.5669 36.2255V33.7947H85.6617V33.0125ZM89.2332 32.9075C87.6897 32.9075 86.645 34.0257 86.645 35.5062C86.645 36.9867 87.6897 38.105 89.2332 38.105C89.9735 38.105 90.635 37.832 91.0865 37.3227L90.5562 36.7295C90.2097 37.0655 89.7425 37.3017 89.2122 37.3017C88.2515 37.3017 87.5217 36.551 87.5217 35.5062C87.5217 34.4615 88.2515 33.716 89.2122 33.716C89.7425 33.716 90.1677 33.9207 90.5352 34.2777L91.0865 33.695C90.6402 33.1805 89.9735 32.9075 89.2332 32.9075ZM93.262 30.44H92.4063V38H93.262V35.2017C93.262 34.2725 93.934 33.7212 94.7373 33.7212C95.6035 33.7212 96.1075 34.262 96.1075 35.1807V38H96.9685V34.9025C96.9685 33.7055 96.118 32.9075 94.8895 32.9075C94.312 32.9075 93.6715 33.0965 93.262 33.6582V30.44ZM99.5887 33.0125H98.733V38H99.5887V33.0125ZM99.153 30.6447C98.8117 30.6447 98.5492 30.9125 98.5492 31.259C98.5492 31.6002 98.8117 31.8575 99.153 31.8575C99.4942 31.8575 99.7672 31.6002 99.7672 31.259C99.7672 30.9125 99.4942 30.6447 99.153 30.6447ZM103.892 32.9075C103.315 32.9075 102.669 33.1017 102.26 33.6635V33.0125H101.409V38H102.265V35.2017C102.265 34.2725 102.937 33.7212 103.74 33.7212C104.606 33.7212 105.11 34.262 105.11 35.1807V38H105.971V34.9025C105.971 33.7055 105.121 32.9075 103.892 32.9075ZM109.825 32.9075C108.424 32.9075 107.358 33.947 107.358 35.4642C107.358 36.9867 108.424 38.0263 109.825 38.0263C110.597 38.0263 111.164 37.727 111.542 37.2492V37.6902C111.542 38.798 110.823 39.4018 109.752 39.4018C109.106 39.4018 108.513 39.1865 108.035 38.8453L107.662 39.5383C108.172 39.9478 108.975 40.184 109.752 40.184C111.327 40.184 112.403 39.2653 112.403 37.6535V33.0125H111.542V33.6897C111.164 33.212 110.597 32.9075 109.825 32.9075ZM109.925 33.716C110.917 33.716 111.616 34.472 111.616 35.4642C111.616 36.4617 110.917 37.2177 109.925 37.2177C108.901 37.2177 108.235 36.4355 108.235 35.4642C108.235 34.5035 108.901 33.716 109.925 33.716ZM118.086 30.65H117.162V38H118.086V34.7345H122.423V38H123.347V30.65H122.423V33.863H118.086V30.65ZM130.036 33.0125H129.175V33.6845C128.782 33.212 128.199 32.9075 127.417 32.9075C126.015 32.9075 124.923 33.9995 124.923 35.5062C124.923 37.013 126.015 38.105 127.417 38.105C128.199 38.105 128.782 37.8005 129.175 37.3332V38H130.036V33.0125ZM127.516 33.716C128.524 33.716 129.228 34.4877 129.228 35.5062C129.228 36.53 128.524 37.3017 127.516 37.3017C126.493 37.3017 125.8 36.4985 125.8 35.5062C125.8 34.514 126.477 33.716 127.516 33.716ZM134.468 32.9075C133.68 32.9075 133.097 33.212 132.709 33.6792V33.0125H131.853V40.1H132.709V37.3332C133.097 37.8005 133.68 38.105 134.468 38.105C135.864 38.105 136.961 37.013 136.961 35.5062C136.961 33.9995 135.864 32.9075 134.468 32.9075ZM134.368 33.716C135.386 33.716 136.079 34.514 136.079 35.5062C136.079 36.4985 135.402 37.3017 134.368 37.3017C133.36 37.3017 132.656 36.53 132.656 35.5062C132.656 34.4877 133.36 33.716 134.368 33.716ZM141.01 32.9075C140.222 32.9075 139.639 33.212 139.251 33.6792V33.0125H138.395V40.1H139.251V37.3332C139.639 37.8005 140.222 38.105 141.01 38.105C142.406 38.105 143.503 37.013 143.503 35.5062C143.503 33.9995 142.406 32.9075 141.01 32.9075ZM140.91 33.716C141.928 33.716 142.621 34.514 142.621 35.5062C142.621 36.4985 141.944 37.3017 140.91 37.3017C139.902 37.3017 139.198 36.53 139.198 35.5062C139.198 34.4877 139.902 33.716 140.91 33.716ZM145.793 33.0125H144.937V38H145.793V33.0125ZM145.357 30.6447C145.016 30.6447 144.753 30.9125 144.753 31.259C144.753 31.6002 145.016 31.8575 145.357 31.8575C145.698 31.8575 145.971 31.6002 145.971 31.259C145.971 30.9125 145.698 30.6447 145.357 30.6447ZM150.097 32.9075C149.519 32.9075 148.873 33.1017 148.464 33.6635V33.0125H147.613V38H148.469V35.2017C148.469 34.2725 149.141 33.7212 149.944 33.7212C150.811 33.7212 151.315 34.262 151.315 35.1807V38H152.176V34.9025C152.176 33.7055 151.325 32.9075 150.097 32.9075ZM156.04 32.9075C154.607 32.9075 153.562 33.9732 153.562 35.5062C153.562 37.0602 154.612 38.105 156.092 38.105C156.827 38.105 157.52 37.9265 158.14 37.349L157.683 36.761C157.258 37.1285 156.728 37.3542 156.145 37.3542C155.289 37.3542 154.57 36.845 154.449 35.8107H158.371C158.376 35.7162 158.387 35.6007 158.387 35.4905C158.376 33.9627 157.4 32.9075 156.04 32.9075ZM156.024 33.6687C156.833 33.6687 157.405 34.2357 157.51 35.1177H154.46C154.591 34.2672 155.142 33.6687 156.024 33.6687ZM163.558 33.4535C163.075 33.1227 162.356 32.9127 161.569 32.9127C160.356 32.9127 159.563 33.4902 159.563 34.4457C159.563 35.2017 160.104 35.7057 161.222 35.8422L161.8 35.9105C162.477 35.9945 162.802 36.2255 162.802 36.593C162.802 37.0865 162.298 37.3542 161.479 37.3542C160.645 37.3542 160.146 37.1127 159.773 36.824L159.374 37.4645C160.03 37.958 160.86 38.105 161.474 38.105C162.834 38.105 163.684 37.4907 163.684 36.5405C163.684 35.7162 163.06 35.27 161.999 35.1282L161.422 35.0547C160.818 34.9812 160.456 34.7975 160.456 34.3985C160.456 33.947 160.897 33.6582 161.579 33.6582C162.235 33.6582 162.871 33.905 163.186 34.1202L163.558 33.4535ZM168.778 33.4535C168.295 33.1227 167.575 32.9127 166.788 32.9127C165.575 32.9127 164.782 33.4902 164.782 34.4457C164.782 35.2017 165.323 35.7057 166.441 35.8422L167.019 35.9105C167.696 35.9945 168.022 36.2255 168.022 36.593C168.022 37.0865 167.518 37.3542 166.699 37.3542C165.864 37.3542 165.365 37.1127 164.992 36.824L164.593 37.4645C165.25 37.958 166.079 38.105 166.693 38.105C168.053 38.105 168.904 37.4907 168.904 36.5405C168.904 35.7162 168.279 35.27 167.218 35.1282L166.641 35.0547C166.037 34.9812 165.675 34.7975 165.675 34.3985C165.675 33.947 166.116 33.6582 166.798 33.6582C167.455 33.6582 168.09 33.905 168.405 34.1202L168.778 33.4535Z" fill="#171C9B"/>
<path d="M0.899777 14.7948H2.6998V21.0993C2.6998 21.3382 2.79462 21.5673 2.96341 21.7362C3.13219 21.9051 3.36112 22 3.59981 22H14.4C14.6387 22 14.8676 21.9051 15.0364 21.7362C15.2052 21.5673 15.3 21.3382 15.3 21.0993V14.7948H17.1C17.2739 14.7949 17.4442 14.7445 17.59 14.6497C17.7359 14.5549 17.8511 14.4198 17.9217 14.2607C17.9928 14.1017 18.0162 13.9255 17.989 13.7534C17.9618 13.5814 17.8853 13.4209 17.7687 13.2916L9.6686 4.28506C9.32749 3.90498 8.67228 3.90498 8.33118 4.28506L0.231068 13.2916C0.114688 13.421 0.0382739 13.5813 0.0110719 13.7533C-0.0161302 13.9252 0.00704552 14.1014 0.0777948 14.2604C0.148544 14.4195 0.263835 14.5546 0.409716 14.6494C0.555597 14.7442 0.725816 14.7947 0.899777 14.7948V14.7948ZM5.98755 12.6701C6.36216 12.3 6.86739 12.0925 7.39382 12.0925C7.92024 12.0925 8.42547 12.3 8.80009 12.6701L9.00169 12.8683L9.20239 12.6701C9.57716 12.3 10.0825 12.0924 10.6091 12.0924C11.1357 12.0924 11.6411 12.3 12.0158 12.6701C12.2018 12.8491 12.3497 13.0638 12.4507 13.3014C12.5517 13.5389 12.6038 13.7945 12.6038 14.0526C12.6038 14.3108 12.5517 14.5663 12.4507 14.8039C12.3497 15.0414 12.2018 15.2561 12.0158 15.4351L9.00169 18.3974L5.98755 15.4351C5.80162 15.2561 5.65372 15.0414 5.55268 14.8039C5.45165 14.5663 5.39958 14.3108 5.39958 14.0526C5.39958 13.7945 5.45165 13.5389 5.55268 13.3014C5.65372 13.0638 5.80162 12.8491 5.98755 12.6701V12.6701Z" fill="#171C9B"/>
</svg>
