<svg width="24" height="24" viewBox="0 0 24 24" fill="none" xmlns="http://www.w3.org/2000/svg">
<path fill-rule="evenodd" clip-rule="evenodd" d="M19.3333 22.667C20.2173 22.667 21.0652 22.3158 21.6903 21.6907C22.3154 21.0656 22.6666 20.2177 22.6666 19.3337C22.6666 18.4496 22.3154 17.6018 21.6903 16.9766C21.0652 16.3515 20.2173 16.0003 19.3333 16.0003C18.4492 16.0003 17.6014 16.3515 16.9763 16.9766C16.3511 17.6018 16 18.4496 16 19.3337C16 20.2177 16.3511 21.0656 16.9763 21.6907C17.6014 22.3158 18.4492 22.667 19.3333 22.667ZM19.3333 24.0003C20.571 24.0003 21.758 23.5087 22.6331 22.6335C23.5083 21.7583 24 20.5713 24 19.3337C24 18.096 23.5083 16.909 22.6331 16.0338C21.758 15.1587 20.571 14.667 19.3333 14.667C18.0956 14.667 16.9086 15.1587 16.0335 16.0338C15.1583 16.909 14.6666 18.096 14.6666 19.3337C14.6666 20.5713 15.1583 21.7583 16.0335 22.6335C16.9086 23.5087 18.0956 24.0003 19.3333 24.0003Z" fill="#4A3AFF"/>
<path fill-rule="evenodd" clip-rule="evenodd" d="M19.3333 17C19.5101 17 19.6797 17.0702 19.8047 17.1953C19.9297 17.3203 20 17.4899 20 17.6667V19.0573L20.4713 19.5287C20.5927 19.6544 20.6599 19.8228 20.6584 19.9976C20.6569 20.1724 20.5868 20.3396 20.4632 20.4632C20.3396 20.5868 20.1724 20.6569 19.9976 20.6584C19.8228 20.66 19.6544 20.5928 19.5286 20.4713L18.6666 19.6093V17.6667C18.6666 17.4899 18.7369 17.3203 18.8619 17.1953C18.9869 17.0702 19.1565 17 19.3333 17ZM5.33329 11.3333H3.99996V12.6667H5.33329V11.3333ZM3.99996 10C3.64634 10 3.3072 10.1405 3.05715 10.3905C2.8071 10.6406 2.66663 10.9797 2.66663 11.3333V12.6667C2.66663 13.0203 2.8071 13.3594 3.05715 13.6095C3.3072 13.8595 3.64634 14 3.99996 14H5.33329C5.68691 14 6.02605 13.8595 6.2761 13.6095C6.52615 13.3594 6.66663 13.0203 6.66663 12.6667V11.3333C6.66663 10.9797 6.52615 10.6406 6.2761 10.3905C6.02605 10.1405 5.68691 10 5.33329 10H3.99996ZM10.6666 11.3333H9.33329V12.6667H10.6666V11.3333ZM9.33329 10C8.97967 10 8.64053 10.1405 8.39048 10.3905C8.14044 10.6406 7.99996 10.9797 7.99996 11.3333V12.6667C7.99996 13.0203 8.14044 13.3594 8.39048 13.6095C8.64053 13.8595 8.97967 14 9.33329 14H10.6666C11.0202 14 11.3594 13.8595 11.6094 13.6095C11.8595 13.3594 12 13.0203 12 12.6667V11.3333C12 10.9797 11.8595 10.6406 11.6094 10.3905C11.3594 10.1405 11.0202 10 10.6666 10H9.33329ZM16 11.3333H14.6666V12.6667H16V11.3333ZM14.6666 10C14.313 10 13.9739 10.1405 13.7238 10.3905C13.4738 10.6406 13.3333 10.9797 13.3333 11.3333V12.6667C13.3333 13.0203 13.4738 13.3594 13.7238 13.6095C13.9739 13.8595 14.313 14 14.6666 14H16C16.3536 14 16.6927 13.8595 16.9428 13.6095C17.1928 13.3594 17.3333 13.0203 17.3333 12.6667V11.3333C17.3333 10.9797 17.1928 10.6406 16.9428 10.3905C16.6927 10.1405 16.3536 10 16 10H14.6666ZM5.33329 16.6667H3.99996V18H5.33329V16.6667ZM3.99996 15.3333C3.64634 15.3333 3.3072 15.4738 3.05715 15.7239C2.8071 15.9739 2.66663 16.313 2.66663 16.6667V18C2.66663 18.3536 2.8071 18.6928 3.05715 18.9428C3.3072 19.1929 3.64634 19.3333 3.99996 19.3333H5.33329C5.68691 19.3333 6.02605 19.1929 6.2761 18.9428C6.52615 18.6928 6.66663 18.3536 6.66663 18V16.6667C6.66663 16.313 6.52615 15.9739 6.2761 15.7239C6.02605 15.4738 5.68691 15.3333 5.33329 15.3333H3.99996ZM10.6666 16.6667H9.33329V18H10.6666V16.6667ZM9.33329 15.3333C8.97967 15.3333 8.64053 15.4738 8.39048 15.7239C8.14044 15.9739 7.99996 16.313 7.99996 16.6667V18C7.99996 18.3536 8.14044 18.6928 8.39048 18.9428C8.64053 19.1929 8.97967 19.3333 9.33329 19.3333H10.6666C11.0202 19.3333 11.3594 19.1929 11.6094 18.9428C11.8595 18.6928 12 18.3536 12 18V16.6667C12 16.313 11.8595 15.9739 11.6094 15.7239C11.3594 15.4738 11.0202 15.3333 10.6666 15.3333H9.33329Z" fill="#4A3AFF"/>
<path fill-rule="evenodd" clip-rule="evenodd" d="M1.33333 4C1.33333 3.82319 1.40357 3.65362 1.5286 3.5286C1.65362 3.40357 1.82319 3.33333 2 3.33333H5.33333V2H2C1.46957 2 0.960859 2.21071 0.585787 2.58579C0.210714 2.96086 0 3.46957 0 4V20C0 20.5304 0.210714 21.0391 0.585787 21.4142C0.960859 21.7893 1.46957 22 2 22H15.5033C15.219 21.5928 15.0018 21.1426 14.86 20.6667H2C1.82319 20.6667 1.65362 20.5964 1.5286 20.4714C1.40357 20.3464 1.33333 20.1768 1.33333 20V4ZM18.6667 14.7133C19.1089 14.6501 19.5578 14.6501 20 14.7133V4C20 3.46957 19.7893 2.96086 19.4142 2.58579C19.0391 2.21071 18.5304 2 18 2H16V3.33333H18C18.1768 3.33333 18.3464 3.40357 18.4714 3.5286C18.5964 3.65362 18.6667 3.82319 18.6667 4V14.7133ZM6.66667 3.33333H13.7087V2H6.66667V3.33333Z" fill="#4A3AFF"/>
<path fill-rule="evenodd" clip-rule="evenodd" d="M14.6667 2H6.66675V4C6.66675 4.17681 6.59651 4.34638 6.47149 4.4714C6.34646 4.59643 6.17689 4.66667 6.00008 4.66667C5.82327 4.66667 5.6537 4.59643 5.52868 4.4714C5.40365 4.34638 5.33342 4.17681 5.33342 4V2H2.00008C1.64646 2 1.30732 2.14048 1.05727 2.39052C0.807224 2.64057 0.666748 2.97971 0.666748 3.33333V6.66667C0.666748 7.02029 0.807224 7.35943 1.05727 7.60948C1.30732 7.85952 1.64646 8 2.00008 8H18.0001C18.3537 8 18.6928 7.85952 18.9429 7.60948C19.1929 7.35943 19.3334 7.02029 19.3334 6.66667V3.33333C19.3334 2.97971 19.1929 2.64057 18.9429 2.39052C18.6928 2.14048 18.3537 2 18.0001 2H16.0001V4C16.0001 4.17681 15.9298 4.34638 15.8048 4.4714C15.6798 4.59643 15.5102 4.66667 15.3334 4.66667C15.1566 4.66667 14.987 4.59643 14.862 4.4714C14.737 4.34638 14.6667 4.17681 14.6667 4V2Z" fill="#4A3AFF"/>
<path fill-rule="evenodd" clip-rule="evenodd" d="M19.9999 7.99935H1.33325V6.66602H19.9999V7.99935Z" fill="#4A3AFF"/>
<path d="M4 0.666667C4 0.489856 4.07024 0.320287 4.19526 0.195262C4.32029 0.070238 4.48986 0 4.66667 0C4.84348 0 5.01305 0.070238 5.13807 0.195262C5.2631 0.320287 5.33333 0.489856 5.33333 0.666667V3.33333C5.33333 3.51014 5.2631 3.67971 5.13807 3.80474C5.01305 3.92976 4.84348 4 4.66667 4C4.48986 4 4.32029 3.92976 4.19526 3.80474C4.07024 3.67971 4 3.51014 4 3.33333V0.666667ZM13.3333 0.666667C13.3333 0.489856 13.4036 0.320287 13.5286 0.195262C13.6536 0.070238 13.8232 0 14 0C14.1768 0 14.3464 0.070238 14.4714 0.195262C14.5964 0.320287 14.6667 0.489856 14.6667 0.666667V3.33333C14.6667 3.51014 14.5964 3.67971 14.4714 3.80474C14.3464 3.92976 14.1768 4 14 4C13.8232 4 13.6536 3.92976 13.5286 3.80474C13.4036 3.67971 13.3333 3.51014 13.3333 3.33333V0.666667Z" fill="#4A3AFF"/>
</svg>
