<svg width="21" height="28" viewBox="0 0 21 28" fill="none" xmlns="http://www.w3.org/2000/svg">
<path d="M14 0.875C14 0.642935 13.9078 0.420376 13.7437 0.256282C13.5796 0.0921872 13.3571 0 13.125 0L7.875 0C7.64294 0 7.42038 0.0921872 7.25628 0.256282C7.09219 0.420376 7 0.642935 7 0.875C7 1.10706 6.90781 1.32962 6.74372 1.49372C6.57962 1.65781 6.35706 1.75 6.125 1.75C5.89294 1.75 5.67038 1.84219 5.50628 2.00628C5.34219 2.17038 5.25 2.39294 5.25 2.625V3.5C5.25 3.73206 5.34219 3.95462 5.50628 4.11872C5.67038 4.28281 5.89294 4.375 6.125 4.375H14.875C15.1071 4.375 15.3296 4.28281 15.4937 4.11872C15.6578 3.95462 15.75 3.73206 15.75 3.5V2.625C15.75 2.39294 15.6578 2.17038 15.4937 2.00628C15.3296 1.84219 15.1071 1.75 14.875 1.75C14.6429 1.75 14.4204 1.65781 14.2563 1.49372C14.0922 1.32962 14 1.10706 14 0.875Z" fill="#4A3AFF"/>
<path d="M3.64875 1.75H2.625C1.92881 1.75 1.26113 2.02656 0.768845 2.51884C0.276562 3.01113 0 3.67881 0 4.375V25.375C0 26.0712 0.276562 26.7389 0.768845 27.2312C1.26113 27.7234 1.92881 28 2.625 28H18.375C19.0712 28 19.7389 27.7234 20.2312 27.2312C20.7234 26.7389 21 26.0712 21 25.375V4.375C21 3.67881 20.7234 3.01113 20.2312 2.51884C19.7389 2.02656 19.0712 1.75 18.375 1.75H17.3512C17.4475 2.023 17.5 2.31875 17.5 2.625V3.5C17.5 4.19619 17.2234 4.86387 16.7312 5.35615C16.2389 5.84844 15.5712 6.125 14.875 6.125H6.125C5.42881 6.125 4.76113 5.84844 4.26884 5.35615C3.77656 4.86387 3.5 4.19619 3.5 3.5V2.625C3.5 2.31875 3.5525 2.023 3.64875 1.75ZM14 12.25C14 11.7859 14.1844 11.3408 14.5126 11.0126C14.8408 10.6844 15.2859 10.5 15.75 10.5C16.2141 10.5 16.6592 10.6844 16.9874 11.0126C17.3156 11.3408 17.5 11.7859 17.5 12.25V21C17.5 21.4641 17.3156 21.9092 16.9874 22.2374C16.6592 22.5656 16.2141 22.75 15.75 22.75C15.2859 22.75 14.8408 22.5656 14.5126 22.2374C14.1844 21.9092 14 21.4641 14 21V12.25ZM3.5 19.25C3.5 18.7859 3.68437 18.3408 4.01256 18.0126C4.34075 17.6844 4.78587 17.5 5.25 17.5C5.71413 17.5 6.15925 17.6844 6.48744 18.0126C6.81563 18.3408 7 18.7859 7 19.25V21C7 21.4641 6.81563 21.9092 6.48744 22.2374C6.15925 22.5656 5.71413 22.75 5.25 22.75C4.78587 22.75 4.34075 22.5656 4.01256 22.2374C3.68437 21.9092 3.5 21.4641 3.5 21V19.25ZM10.5 14C10.9641 14 11.4092 14.1844 11.7374 14.5126C12.0656 14.8408 12.25 15.2859 12.25 15.75V21C12.25 21.4641 12.0656 21.9092 11.7374 22.2374C11.4092 22.5656 10.9641 22.75 10.5 22.75C10.0359 22.75 9.59075 22.5656 9.26256 22.2374C8.93437 21.9092 8.75 21.4641 8.75 21V15.75C8.75 15.2859 8.93437 14.8408 9.26256 14.5126C9.59075 14.1844 10.0359 14 10.5 14Z" fill="#4A3AFF"/>
</svg>
