<svg width="21" height="13" viewBox="0 0 21 13" fill="none" xmlns="http://www.w3.org/2000/svg">
<path fill-rule="evenodd" clip-rule="evenodd" d="M0 6.5C0 6.30848 0.0760804 6.12481 0.211504 5.98938C0.346928 5.85396 0.530603 5.77788 0.722121 5.77788H17.7541L13.209 1.23429C13.0734 1.0987 12.9973 0.914793 12.9973 0.723033C12.9973 0.531273 13.0734 0.347366 13.209 0.211771C13.3446 0.0761763 13.5285 4.51803e-09 13.7203 0C13.9121 -4.51803e-09 14.096 0.0761763 14.2316 0.211771L20.0085 5.98874C20.0758 6.05582 20.1291 6.1355 20.1655 6.22324C20.2019 6.31097 20.2207 6.40502 20.2207 6.5C20.2207 6.59498 20.2019 6.68903 20.1655 6.77676C20.1291 6.8645 20.0758 6.94418 20.0085 7.01126L14.2316 12.7882C14.096 12.9238 13.9121 13 13.7203 13C13.5285 13 13.3446 12.9238 13.209 12.7882C13.0734 12.6526 12.9973 12.4687 12.9973 12.277C12.9973 12.0852 13.0734 11.9013 13.209 11.7657L17.7541 7.22212H0.722121C0.530603 7.22212 0.346928 7.14604 0.211504 7.01062C0.0760804 6.87519 0 6.69152 0 6.5Z" fill="#4D3EFA"/>
</svg>
