<svg width="30" height="30" viewBox="0 0 30 30" fill="none" xmlns="http://www.w3.org/2000/svg">
<path d="M17.7244 14.9606L14.3447 13.3794C14.0498 13.2421 13.8075 13.396 13.8075 13.7234V16.7017C13.8075 17.0291 14.0498 17.1829 14.3447 17.0457L17.7229 15.4645C18.0193 15.3257 18.0193 15.0994 17.7244 14.9606ZM15.3122 0.728516C7.33402 0.728516 0.866577 7.21313 0.866577 15.2125C0.866577 23.2119 7.33402 29.6965 15.3122 29.6965C23.2905 29.6965 29.7579 23.2119 29.7579 15.2125C29.7579 7.21313 23.2905 0.728516 15.3122 0.728516ZM15.3122 21.0966C7.91787 21.0966 7.78846 20.4283 7.78846 15.2125C7.78846 9.99677 7.91787 9.32839 15.3122 9.32839C22.7066 9.32839 22.836 9.99677 22.836 15.2125C22.836 20.4283 22.7066 21.0966 15.3122 21.0966Z" fill="white"/>
</svg>
