<svg width="68" height="68" viewBox="0 0 68 68" fill="none" xmlns="http://www.w3.org/2000/svg">
<g filter="url(#filter0_d_1139_84)">
<path d="M41.5 24L47 31.3333H50.6667C52.7017 31.3333 54.3333 32.965 54.3333 35V40.5H50.6667C50.6667 41.9587 50.0872 43.3576 49.0558 44.3891C48.0243 45.4205 46.6254 46 45.1667 46C43.708 46 42.309 45.4205 41.2776 44.3891C40.2461 43.3576 39.6667 41.9587 39.6667 40.5H28.6667C28.6667 41.9587 28.0872 43.3576 27.0558 44.3891C26.0243 45.4205 24.6254 46 23.1667 46C21.708 46 20.309 45.4205 19.2776 44.3891C18.2461 43.3576 17.6667 41.9587 17.6667 40.5H14V35C14 32.965 15.6317 31.3333 17.6667 31.3333L23.1667 24H41.5ZM31.4167 26.75H24.5417L21.0767 31.3333H31.4167V26.75ZM34.1667 26.75V31.3333H43.59L40.125 26.75H34.1667ZM23.1667 37.75C22.4373 37.75 21.7378 38.0397 21.2221 38.5555C20.7064 39.0712 20.4167 39.7707 20.4167 40.5C20.4167 41.2293 20.7064 41.9288 21.2221 42.4445C21.7378 42.9603 22.4373 43.25 23.1667 43.25C23.896 43.25 24.5955 42.9603 25.1112 42.4445C25.6269 41.9288 25.9167 41.2293 25.9167 40.5C25.9167 39.7707 25.6269 39.0712 25.1112 38.5555C24.5955 38.0397 23.896 37.75 23.1667 37.75ZM45.1667 37.75C44.4373 37.75 43.7379 38.0397 43.2221 38.5555C42.7064 39.0712 42.4167 39.7707 42.4167 40.5C42.4167 41.2293 42.7064 41.9288 43.2221 42.4445C43.7379 42.9603 44.4373 43.25 45.1667 43.25C45.896 43.25 46.5955 42.9603 47.1112 42.4445C47.6269 41.9288 47.9167 41.2293 47.9167 40.5C47.9167 39.7707 47.6269 39.0712 47.1112 38.5555C46.5955 38.0397 45.896 37.75 45.1667 37.75Z" fill="#4A3AFF"/>
</g>
<circle opacity="0.15" cx="34.1314" cy="34.2951" r="33.3209" fill="#4A3AFF"/>
<defs>
<filter id="filter0_d_1139_84" x="4" y="14" width="60.3333" height="42" filterUnits="userSpaceOnUse" color-interpolation-filters="sRGB">
<feFlood flood-opacity="0" result="BackgroundImageFix"/>
<feColorMatrix in="SourceAlpha" type="matrix" values="0 0 0 0 0 0 0 0 0 0 0 0 0 0 0 0 0 0 127 0" result="hardAlpha"/>
<feOffset/>
<feGaussianBlur stdDeviation="5"/>
<feComposite in2="hardAlpha" operator="out"/>
<feColorMatrix type="matrix" values="0 0 0 0 0.290196 0 0 0 0 0.227451 0 0 0 0 1 0 0 0 0.27 0"/>
<feBlend mode="normal" in2="BackgroundImageFix" result="effect1_dropShadow_1139_84"/>
<feBlend mode="normal" in="SourceGraphic" in2="effect1_dropShadow_1139_84" result="shape"/>
</filter>
</defs>
</svg>
