<svg width="67" height="67" viewBox="0 0 67 67" fill="none" xmlns="http://www.w3.org/2000/svg">
<g filter="url(#filter0_d_1139_85)">
<path fill-rule="evenodd" clip-rule="evenodd" d="M31.9948 18.2332C32.2386 18.0808 32.5204 18 32.8079 18C33.0955 18 33.3772 18.0808 33.6211 18.2332L44.2133 24.8533L32.8079 31.5624L21.4026 24.8533L31.9948 18.2332ZM19.0123 27.0074C19.0039 27.073 18.9998 27.1391 19 27.2053V39.479C19 39.7392 19.0662 39.9951 19.1923 40.2227C19.3185 40.4503 19.5004 40.6421 19.7211 40.78L31.2737 48V34.2197L19.0123 27.0058V27.0074ZM34.3421 48L45.8948 40.78C46.1154 40.6421 46.2974 40.4503 46.4235 40.2227C46.5497 39.9951 46.6158 39.7392 46.6158 39.479V27.2053C46.6158 27.1393 46.6112 27.0718 46.6036 27.0074L34.3421 34.2182V48Z" fill="#4A3AFF"/>
</g>
<circle opacity="0.15" cx="33.4498" cy="33.3868" r="33.3209" fill="#4A3AFF"/>
<defs>
<filter id="filter0_d_1139_85" x="9" y="8" width="47.6158" height="50" filterUnits="userSpaceOnUse" color-interpolation-filters="sRGB">
<feFlood flood-opacity="0" result="BackgroundImageFix"/>
<feColorMatrix in="SourceAlpha" type="matrix" values="0 0 0 0 0 0 0 0 0 0 0 0 0 0 0 0 0 0 127 0" result="hardAlpha"/>
<feOffset/>
<feGaussianBlur stdDeviation="5"/>
<feComposite in2="hardAlpha" operator="out"/>
<feColorMatrix type="matrix" values="0 0 0 0 0.290196 0 0 0 0 0.227451 0 0 0 0 1 0 0 0 0.25 0"/>
<feBlend mode="normal" in2="BackgroundImageFix" result="effect1_dropShadow_1139_85"/>
<feBlend mode="normal" in="SourceGraphic" in2="effect1_dropShadow_1139_85" result="shape"/>
</filter>
</defs>
</svg>
