<svg width="67" height="66" viewBox="0 0 67 66" fill="none" xmlns="http://www.w3.org/2000/svg">
<ellipse opacity="0.15" cx="33.3209" cy="33.3117" rx="33.3209" ry="32.3689" fill="#4A3AFF"/>
<path d="M36.2075 22.8418C37.3027 22.8418 38.1911 23.7299 38.1911 24.8254V26.809H40.2863C40.9888 26.809 41.6252 27.0859 42.1583 27.5818L45.3527 30.7762C45.8486 31.2721 46.1255 31.9457 46.1255 32.6482V37.3881C46.857 37.3881 47.4479 37.9791 47.4479 38.7105C47.4479 39.442 46.857 40.0329 46.1255 40.0329H44.8031C44.8031 42.2232 43.0261 44.0001 40.8359 44.0001C38.6085 44.0001 36.8687 42.2232 36.8687 40.0329H31.5792C31.5792 42.2232 29.8022 44.0001 27.612 44.0001C25.3846 44.0001 23.6448 42.2232 23.6448 40.0329H22.9836C21.8881 40.0329 21 39.1445 21 38.0493V24.8254C21 23.7299 21.8881 22.8418 22.9836 22.8418H36.2075ZM38.1911 29.4538V33.421H43.4807V32.6482L40.2863 29.4538H38.1911ZM27.612 38.0493C26.5169 38.0493 25.6284 38.9378 25.6284 40.0329C25.6284 41.128 26.5169 42.0165 27.612 42.0165C28.7071 42.0165 29.5956 41.128 29.5956 40.0329C29.5956 38.9378 28.7071 38.0493 27.612 38.0493ZM40.8359 42.0165C41.931 42.0165 42.8195 41.128 42.8195 40.0329C42.8195 38.9378 41.931 38.0493 40.8359 38.0493C39.7408 38.0493 38.8523 38.9378 38.8523 40.0329C38.8523 41.128 39.7408 42.0165 40.8359 42.0165Z" fill="#4A3AFF"/>
<path d="M53.3082 29.0597L51.2675 27.0194C51.1754 26.9273 51.0505 26.8761 50.9195 26.8761H50.5859C51.1508 26.1537 51.4865 25.2452 51.4865 24.2566C51.4865 21.9052 49.5808 20 47.2292 20C44.8776 20 42.9718 21.9052 42.9718 24.2566C42.9718 26.608 44.8774 28.5133 47.2292 28.5133C48.2178 28.5133 49.1267 28.1776 49.8491 27.6127V27.9463C49.8491 28.0773 49.9003 28.2022 49.9924 28.2943L52.0331 30.3346C52.2255 30.527 52.5366 30.527 52.7269 30.3346L53.3061 29.7554C53.4985 29.563 53.4985 29.2521 53.3082 29.0597ZM47.2292 27.2034C45.6013 27.2034 44.2821 25.8866 44.2821 24.2566C44.2821 22.6289 45.5991 21.3099 47.2292 21.3099C48.8571 21.3099 50.1764 22.6267 50.1764 24.2566C50.1764 25.8843 48.8594 27.2034 47.2292 27.2034ZM47.2296 22.2923C46.395 22.2923 45.7184 22.9687 45.7184 23.8033C45.7184 24.4779 46.7061 25.7077 47.0845 26.1541C47.1023 26.1753 47.1245 26.1924 47.1495 26.2041C47.1746 26.2158 47.202 26.2219 47.2296 26.2219C47.2573 26.2219 47.2847 26.2158 47.3097 26.2041C47.3348 26.1924 47.357 26.1753 47.3747 26.1541C47.7532 25.7077 48.7409 24.4781 48.7409 23.8033C48.7409 22.9687 48.0643 22.2923 47.2296 22.2923ZM47.2296 24.257C46.9583 24.257 46.7384 24.037 46.7384 23.7658C46.7384 23.4945 46.9585 23.2746 47.2296 23.2746C47.5008 23.2746 47.7208 23.4945 47.7208 23.7658C47.7208 24.037 47.5008 24.257 47.2296 24.257Z" fill="#4A3AFF"/>
</svg>
