<svg width="67" height="67" viewBox="0 0 67 67" fill="none" xmlns="http://www.w3.org/2000/svg">
<circle opacity="0.15" cx="33.3209" cy="33.3209" r="33.3209" fill="#4A3AFF"/>
<path d="M33 20L21 24V36C21 42.6281 26.3719 48 33 48C39.6281 48 45 42.6281 45 36V24L33 20ZM42.75 36C42.75 41.3844 38.3844 45.75 33 45.75C27.6156 45.75 23.25 41.3844 23.25 36V25.6875L33 22.25L42.75 25.6875V36Z" fill="#4A3AFF"/>
<path d="M28.2961 33.4367C28.1918 33.332 28.0679 33.2489 27.9314 33.1921C27.7949 33.1354 27.6486 33.1062 27.5008 33.1062C27.353 33.1062 27.2067 33.1354 27.0702 33.1921C26.9337 33.2489 26.8098 33.332 26.7055 33.4367C26.6007 33.541 26.5176 33.6649 26.4609 33.8014C26.4042 33.9379 26.375 34.0842 26.375 34.232C26.375 34.3798 26.4042 34.5262 26.4609 34.6627C26.5176 34.7991 26.6007 34.9231 26.7055 35.0273L30.7492 39.0711L30.8149 39.1367C30.9135 39.2355 31.0306 39.3139 31.1596 39.3674C31.2886 39.4209 31.4268 39.4484 31.5664 39.4484C31.706 39.4484 31.8443 39.4209 31.9733 39.3674C32.1022 39.3139 32.2194 39.2355 32.318 39.1367L39.3024 32.1523C39.4012 32.0537 39.4796 31.9366 39.5331 31.8076C39.5866 31.6786 39.6141 31.5404 39.6141 31.4008C39.6141 31.2612 39.5866 31.1229 39.5331 30.994C39.4796 30.865 39.4012 30.7478 39.3024 30.6492L39.2149 30.5617C39.1162 30.4629 38.9991 30.3845 38.8701 30.331C38.7412 30.2775 38.6029 30.25 38.4633 30.25C38.3237 30.25 38.1854 30.2775 38.0565 30.331C37.9275 30.3845 37.8104 30.4629 37.7117 30.5617L31.5649 36.7055L28.2961 33.4367Z" fill="#4A3AFF"/>
</svg>
