<svg width="126" height="22" viewBox="0 0 126 22" fill="none" xmlns="http://www.w3.org/2000/svg">
<path d="M37 1.8335L39.8325 7.57183L46.1666 8.49766L41.5833 12.9618L42.665 19.2685L37 16.2893L31.335 19.2685L32.4166 12.9618L27.8333 8.49766L34.1675 7.57183L37 1.8335Z" fill="#FFA033" stroke="#FFA033" stroke-linecap="round" stroke-linejoin="round"/>
<path d="M11 1.8335L13.8325 7.57183L20.1666 8.49766L15.5833 12.9618L16.665 19.2685L11 16.2893L5.33498 19.2685L6.41665 12.9618L1.83331 8.49766L8.16748 7.57183L11 1.8335Z" fill="#FFA033" stroke="#FFA033" stroke-linecap="round" stroke-linejoin="round"/>
<path d="M63 1.8335L65.8325 7.57183L72.1666 8.49766L67.5833 12.9618L68.665 19.2685L63 16.2893L57.335 19.2685L58.4166 12.9618L53.8333 8.49766L60.1675 7.57183L63 1.8335Z" fill="#FFA033" stroke="#FFA033" stroke-linecap="round" stroke-linejoin="round"/>
<path d="M89 1.8335L91.8325 7.57183L98.1666 8.49766L93.5833 12.9618L94.665 19.2685L89 16.2893L83.335 19.2685L84.4166 12.9618L79.8333 8.49766L86.1675 7.57183L89 1.8335Z" fill="#FFA033" stroke="#FFA033" stroke-linecap="round" stroke-linejoin="round"/>
<path d="M115 1.8335L117.833 7.57183L124.167 8.49766L119.583 12.9618L120.665 19.2685L115 16.2893L109.335 19.2685L110.417 12.9618L105.833 8.49766L112.168 7.57183L115 1.8335Z" stroke="#FFA033" stroke-linecap="round" stroke-linejoin="round"/>
</svg>
