<svg width="159" height="44" viewBox="0 0 159 44" fill="none" xmlns="http://www.w3.org/2000/svg">
<path d="M20.0239 39H18.3911L18.4019 38.1567H20.0239C20.5825 38.1567 21.048 38.0404 21.4204 37.8076C21.7928 37.5713 22.0721 37.2419 22.2583 36.8193C22.4481 36.3932 22.543 35.8955 22.543 35.3262V34.8481C22.543 34.4006 22.4893 34.0031 22.3818 33.6558C22.2744 33.3049 22.1169 33.0094 21.9092 32.7695C21.7015 32.526 21.4473 32.3416 21.1465 32.2163C20.8493 32.091 20.5073 32.0283 20.1206 32.0283H18.3589V31.1797H20.1206C20.6326 31.1797 21.0999 31.2656 21.5225 31.4375C21.945 31.6058 22.3084 31.8511 22.6128 32.1733C22.9207 32.492 23.1571 32.8787 23.3218 33.3335C23.4865 33.7847 23.5688 34.2931 23.5688 34.8589V35.3262C23.5688 35.8919 23.4865 36.4022 23.3218 36.8569C23.1571 37.3081 22.9189 37.693 22.6074 38.0117C22.2995 38.3304 21.9271 38.5757 21.4902 38.7476C21.057 38.9159 20.5682 39 20.0239 39ZM18.9443 31.1797V39H17.9077V31.1797H18.9443ZM26.0557 33.1885V39H25.0566V33.1885H26.0557ZM24.9814 31.647C24.9814 31.4858 25.0298 31.3498 25.1265 31.2388C25.2267 31.1278 25.3735 31.0723 25.5669 31.0723C25.7567 31.0723 25.9017 31.1278 26.002 31.2388C26.1058 31.3498 26.1577 31.4858 26.1577 31.647C26.1577 31.8009 26.1058 31.9334 26.002 32.0444C25.9017 32.1519 25.7567 32.2056 25.5669 32.2056C25.3735 32.2056 25.2267 32.1519 25.1265 32.0444C25.0298 31.9334 24.9814 31.8009 24.9814 31.647ZM31.0347 37.4585C31.0347 37.3153 31.0024 37.1828 30.938 37.061C30.8771 36.9357 30.75 36.8229 30.5566 36.7227C30.3669 36.6188 30.0804 36.5293 29.6973 36.4541C29.375 36.3861 29.0832 36.3055 28.8218 36.2124C28.564 36.1193 28.3438 36.0065 28.1611 35.874C27.9821 35.7415 27.8442 35.5858 27.7476 35.4067C27.6509 35.2277 27.6025 35.0182 27.6025 34.7783C27.6025 34.5492 27.6527 34.3325 27.7529 34.1284C27.8568 33.9243 28.0018 33.7435 28.188 33.5859C28.3778 33.4284 28.6051 33.3049 28.8701 33.2153C29.1351 33.1258 29.4305 33.0811 29.7563 33.0811C30.2218 33.0811 30.6193 33.1634 30.9487 33.3281C31.2782 33.4928 31.5306 33.7131 31.7061 33.9888C31.8815 34.2609 31.9692 34.5635 31.9692 34.8965H30.9756C30.9756 34.7354 30.9272 34.5796 30.8306 34.4292C30.7375 34.2752 30.5996 34.1481 30.417 34.0479C30.238 33.9476 30.0177 33.8975 29.7563 33.8975C29.4806 33.8975 29.2568 33.9404 29.085 34.0264C28.9167 34.1087 28.7931 34.2144 28.7144 34.3433C28.6392 34.4722 28.6016 34.6082 28.6016 34.7515C28.6016 34.8589 28.6195 34.9556 28.6553 35.0415C28.6947 35.1239 28.7627 35.2008 28.8594 35.2725C28.9561 35.3405 29.0921 35.4049 29.2676 35.4658C29.443 35.5267 29.6668 35.5876 29.939 35.6484C30.4152 35.7559 30.8073 35.8848 31.1152 36.0352C31.4232 36.1855 31.6523 36.37 31.8027 36.5884C31.9531 36.8068 32.0283 37.0718 32.0283 37.3833C32.0283 37.6375 31.9746 37.8703 31.8672 38.0815C31.7633 38.2928 31.6112 38.4754 31.4106 38.6294C31.2137 38.7798 30.9774 38.8979 30.7017 38.9839C30.4295 39.0662 30.1234 39.1074 29.7832 39.1074C29.2712 39.1074 28.8379 39.0161 28.4834 38.8335C28.1289 38.6509 27.8604 38.4146 27.6777 38.1245C27.4951 37.8345 27.4038 37.5283 27.4038 37.2061H28.4028C28.4172 37.4782 28.4959 37.6948 28.6392 37.856C28.7824 38.0135 28.9578 38.1263 29.1655 38.1943C29.3732 38.2588 29.5791 38.291 29.7832 38.291C30.0553 38.291 30.2827 38.2552 30.4653 38.1836C30.6515 38.112 30.793 38.0135 30.8896 37.8882C30.9863 37.7629 31.0347 37.6196 31.0347 37.4585ZM34.3271 34.3057V41.2344H33.3281V33.1885H34.2412L34.3271 34.3057ZM38.2427 36.0459V36.1587C38.2427 36.5812 38.1925 36.9733 38.0923 37.335C37.992 37.693 37.8452 38.0046 37.6519 38.2695C37.4621 38.5345 37.2275 38.7404 36.9482 38.8872C36.6689 39.034 36.3485 39.1074 35.9868 39.1074C35.618 39.1074 35.2922 39.0465 35.0093 38.9248C34.7264 38.8031 34.4865 38.6258 34.2896 38.3931C34.0926 38.1603 33.9351 37.881 33.8169 37.5552C33.7023 37.2293 33.6235 36.8623 33.5806 36.4541V35.8525C33.6235 35.4229 33.7041 35.0379 33.8223 34.6978C33.9404 34.3576 34.0962 34.0675 34.2896 33.8276C34.4865 33.5841 34.7246 33.3997 35.0039 33.2744C35.2832 33.1455 35.6055 33.0811 35.9707 33.0811C36.3359 33.0811 36.66 33.1527 36.9429 33.2959C37.2257 33.4355 37.4639 33.6361 37.6572 33.8975C37.8506 34.1589 37.9956 34.4722 38.0923 34.8374C38.1925 35.1991 38.2427 35.6019 38.2427 36.0459ZM37.2437 36.1587V36.0459C37.2437 35.7559 37.2132 35.4837 37.1523 35.2295C37.0915 34.9717 36.9966 34.7461 36.8677 34.5527C36.7424 34.3558 36.5812 34.2018 36.3843 34.0908C36.1873 33.9762 35.9528 33.9189 35.6807 33.9189C35.43 33.9189 35.2116 33.9619 35.0254 34.0479C34.8428 34.1338 34.687 34.2502 34.5581 34.397C34.4292 34.5402 34.3236 34.7049 34.2412 34.8911C34.1624 35.0737 34.1034 35.2635 34.064 35.4604V36.8516C34.1356 37.1022 34.2358 37.3385 34.3647 37.5605C34.4937 37.779 34.6655 37.9562 34.8804 38.0923C35.0952 38.2248 35.3656 38.291 35.6914 38.291C35.96 38.291 36.1909 38.2355 36.3843 38.1245C36.5812 38.0099 36.7424 37.8542 36.8677 37.6572C36.9966 37.4603 37.0915 37.2347 37.1523 36.9805C37.2132 36.7227 37.2437 36.4487 37.2437 36.1587ZM42.937 38.0063V35.0146C42.937 34.7855 42.8905 34.5868 42.7974 34.4185C42.7078 34.2466 42.5718 34.1141 42.3892 34.021C42.2065 33.9279 41.981 33.8813 41.7124 33.8813C41.4618 33.8813 41.2415 33.9243 41.0518 34.0103C40.8656 34.0962 40.7188 34.209 40.6113 34.3486C40.5075 34.4883 40.4556 34.6387 40.4556 34.7998H39.4619C39.4619 34.5921 39.5156 34.3862 39.623 34.1821C39.7305 33.978 39.8844 33.7936 40.085 33.6289C40.2891 33.4606 40.5326 33.3281 40.8154 33.2314C41.1019 33.1312 41.4206 33.0811 41.7715 33.0811C42.194 33.0811 42.5664 33.1527 42.8887 33.2959C43.2145 33.4391 43.4688 33.6558 43.6514 33.9458C43.8376 34.2323 43.9307 34.5921 43.9307 35.0254V37.7324C43.9307 37.9258 43.9468 38.1317 43.979 38.3501C44.0148 38.5685 44.0667 38.7565 44.1348 38.9141V39H43.0981C43.048 38.8854 43.0086 38.7332 42.98 38.5435C42.9513 38.3501 42.937 38.1711 42.937 38.0063ZM43.1089 35.4766L43.1196 36.1748H42.1152C41.8324 36.1748 41.5799 36.1981 41.3579 36.2446C41.1359 36.2876 40.9497 36.3538 40.7993 36.4434C40.6489 36.5329 40.5343 36.6457 40.4556 36.7817C40.3768 36.9142 40.3374 37.07 40.3374 37.249C40.3374 37.4316 40.3786 37.5981 40.4609 37.7485C40.5433 37.8989 40.6668 38.0189 40.8315 38.1084C40.9998 38.1943 41.2057 38.2373 41.4492 38.2373C41.7536 38.2373 42.0221 38.1729 42.2549 38.0439C42.4876 37.915 42.672 37.7575 42.8081 37.5713C42.9478 37.3851 43.0229 37.2043 43.0337 37.0288L43.458 37.5068C43.4329 37.6572 43.3649 37.8237 43.2539 38.0063C43.1429 38.189 42.9943 38.3644 42.8081 38.5327C42.6255 38.6974 42.4071 38.8353 42.1528 38.9463C41.9022 39.0537 41.6193 39.1074 41.3042 39.1074C40.9103 39.1074 40.5648 39.0304 40.2676 38.8765C39.974 38.7225 39.7448 38.5166 39.5801 38.2588C39.4189 37.9974 39.3384 37.7056 39.3384 37.3833C39.3384 37.0718 39.3993 36.7979 39.521 36.5615C39.6427 36.3216 39.8182 36.1229 40.0474 35.9653C40.2765 35.8042 40.5522 35.6825 40.8745 35.6001C41.1968 35.5177 41.5566 35.4766 41.9541 35.4766H43.1089ZM47.9268 33.1885V33.9512H44.7847V33.1885H47.9268ZM45.8481 31.7759H46.8418V37.5605C46.8418 37.7575 46.8722 37.9061 46.9331 38.0063C46.994 38.1066 47.0728 38.1729 47.1694 38.2051C47.2661 38.2373 47.37 38.2534 47.481 38.2534C47.5633 38.2534 47.6493 38.2463 47.7388 38.2319C47.8319 38.214 47.9017 38.1997 47.9482 38.189L47.9536 39C47.8748 39.0251 47.771 39.0483 47.6421 39.0698C47.5168 39.0949 47.3646 39.1074 47.1855 39.1074C46.9421 39.1074 46.7183 39.0591 46.5142 38.9624C46.3101 38.8657 46.1471 38.7046 46.0254 38.479C45.9072 38.2498 45.8481 37.9419 45.8481 37.5552V31.7759ZM51.418 38.291C51.6543 38.291 51.8727 38.2427 52.0732 38.146C52.2738 38.0493 52.4385 37.9168 52.5674 37.7485C52.6963 37.5767 52.7697 37.3815 52.7876 37.1631H53.7329C53.715 37.5068 53.5986 37.8273 53.3838 38.1245C53.1725 38.4181 52.895 38.6562 52.5513 38.8389C52.2075 39.0179 51.8298 39.1074 51.418 39.1074C50.9811 39.1074 50.5998 39.0304 50.2739 38.8765C49.9517 38.7225 49.6831 38.5112 49.4683 38.2427C49.257 37.9741 49.0977 37.6662 48.9902 37.3188C48.8864 36.9679 48.8345 36.5973 48.8345 36.207V35.9814C48.8345 35.5911 48.8864 35.2223 48.9902 34.875C49.0977 34.5241 49.257 34.2144 49.4683 33.9458C49.6831 33.6772 49.9517 33.466 50.2739 33.312C50.5998 33.158 50.9811 33.0811 51.418 33.0811C51.8727 33.0811 52.2702 33.1742 52.6104 33.3604C52.9505 33.543 53.2173 33.7936 53.4106 34.1123C53.6076 34.4274 53.715 34.7855 53.7329 35.1865H52.7876C52.7697 34.9466 52.7017 34.73 52.5835 34.5366C52.4689 34.3433 52.3114 34.1893 52.1108 34.0747C51.9139 33.9565 51.6829 33.8975 51.418 33.8975C51.1136 33.8975 50.8576 33.9583 50.6499 34.0801C50.4458 34.1982 50.2829 34.3594 50.1611 34.5635C50.043 34.764 49.957 34.9878 49.9033 35.2349C49.8532 35.4784 49.8281 35.7272 49.8281 35.9814V36.207C49.8281 36.4613 49.8532 36.7119 49.9033 36.959C49.9535 37.2061 50.0376 37.4299 50.1558 37.6304C50.2775 37.8309 50.4404 37.992 50.6445 38.1138C50.8522 38.2319 51.11 38.291 51.418 38.291ZM55.8438 30.75V39H54.8501V30.75H55.8438ZM55.6074 35.874L55.1938 35.8579C55.1974 35.4604 55.2565 35.0934 55.3711 34.7568C55.4857 34.4167 55.6468 34.1213 55.8545 33.8706C56.0622 33.62 56.3092 33.4266 56.5957 33.2905C56.8857 33.1509 57.2062 33.0811 57.5571 33.0811C57.8436 33.0811 58.1014 33.1204 58.3306 33.1992C58.5597 33.2744 58.7549 33.3962 58.916 33.5645C59.0807 33.7327 59.2061 33.9512 59.292 34.2197C59.3779 34.4847 59.4209 34.8088 59.4209 35.1919V39H58.4219V35.1812C58.4219 34.8768 58.3771 34.6333 58.2876 34.4507C58.1981 34.2645 58.0674 34.1302 57.8955 34.0479C57.7236 33.9619 57.5124 33.9189 57.2617 33.9189C57.0146 33.9189 56.7891 33.9709 56.585 34.0747C56.3844 34.1785 56.2108 34.3218 56.064 34.5044C55.9207 34.687 55.8079 34.8965 55.7256 35.1328C55.6468 35.3656 55.6074 35.6126 55.6074 35.874ZM61.9883 33.1885V39H60.9893V33.1885H61.9883ZM60.9141 31.647C60.9141 31.4858 60.9624 31.3498 61.0591 31.2388C61.1593 31.1278 61.3062 31.0723 61.4995 31.0723C61.6893 31.0723 61.8343 31.1278 61.9346 31.2388C62.0384 31.3498 62.0903 31.4858 62.0903 31.647C62.0903 31.8009 62.0384 31.9334 61.9346 32.0444C61.8343 32.1519 61.6893 32.2056 61.4995 32.2056C61.3062 32.2056 61.1593 32.1519 61.0591 32.0444C60.9624 31.9334 60.9141 31.8009 60.9141 31.647ZM64.5771 34.4292V39H63.5835V33.1885H64.5234L64.5771 34.4292ZM64.3408 35.874L63.9272 35.8579C63.9308 35.4604 63.9899 35.0934 64.1045 34.7568C64.2191 34.4167 64.3802 34.1213 64.5879 33.8706C64.7956 33.62 65.0426 33.4266 65.3291 33.2905C65.6191 33.1509 65.9396 33.0811 66.2905 33.0811C66.577 33.0811 66.8348 33.1204 67.064 33.1992C67.2931 33.2744 67.4883 33.3962 67.6494 33.5645C67.8141 33.7327 67.9395 33.9512 68.0254 34.2197C68.1113 34.4847 68.1543 34.8088 68.1543 35.1919V39H67.1553V35.1812C67.1553 34.8768 67.1105 34.6333 67.021 34.4507C66.9315 34.2645 66.8008 34.1302 66.6289 34.0479C66.457 33.9619 66.2458 33.9189 65.9951 33.9189C65.748 33.9189 65.5225 33.9709 65.3184 34.0747C65.1178 34.1785 64.9442 34.3218 64.7974 34.5044C64.6541 34.687 64.5413 34.8965 64.459 35.1328C64.3802 35.3656 64.3408 35.6126 64.3408 35.874ZM73.4287 33.1885H74.3311V38.8765C74.3311 39.3885 74.2272 39.8254 74.0195 40.187C73.8118 40.5487 73.5218 40.8226 73.1494 41.0088C72.7806 41.1986 72.3545 41.2935 71.8711 41.2935C71.6706 41.2935 71.4342 41.2612 71.1621 41.1968C70.8936 41.1359 70.6286 41.0303 70.3672 40.8799C70.1094 40.7331 69.8927 40.5343 69.7173 40.2837L70.2383 39.6929C70.4818 39.9865 70.736 40.1906 71.001 40.3052C71.2695 40.4198 71.5345 40.4771 71.7959 40.4771C72.111 40.4771 72.3831 40.418 72.6123 40.2998C72.8415 40.1816 73.0187 40.0062 73.144 39.7734C73.2729 39.5443 73.3374 39.2614 73.3374 38.9248V34.4668L73.4287 33.1885ZM69.4272 36.1587V36.0459C69.4272 35.6019 69.4792 35.1991 69.583 34.8374C69.6904 34.4722 69.8426 34.1589 70.0396 33.8975C70.2401 33.6361 70.4818 33.4355 70.7646 33.2959C71.0475 33.1527 71.3662 33.0811 71.7207 33.0811C72.0859 33.0811 72.4046 33.1455 72.6768 33.2744C72.9525 33.3997 73.1852 33.5841 73.375 33.8276C73.5684 34.0675 73.7205 34.3576 73.8315 34.6978C73.9425 35.0379 74.0195 35.4229 74.0625 35.8525V36.3467C74.0231 36.7728 73.9461 37.1559 73.8315 37.4961C73.7205 37.8363 73.5684 38.1263 73.375 38.3662C73.1852 38.6061 72.9525 38.7905 72.6768 38.9194C72.401 39.0448 72.0788 39.1074 71.71 39.1074C71.3626 39.1074 71.0475 39.034 70.7646 38.8872C70.4854 38.7404 70.2454 38.5345 70.0449 38.2695C69.8444 38.0046 69.6904 37.693 69.583 37.335C69.4792 36.9733 69.4272 36.5812 69.4272 36.1587ZM70.4209 36.0459V36.1587C70.4209 36.4487 70.4495 36.7209 70.5068 36.9751C70.5677 37.2293 70.659 37.4531 70.7808 37.6465C70.9061 37.8398 71.0654 37.992 71.2588 38.103C71.4521 38.2104 71.6831 38.2642 71.9517 38.2642C72.2811 38.2642 72.5532 38.1943 72.7681 38.0547C72.9829 37.915 73.153 37.7306 73.2783 37.5015C73.4072 37.2723 73.5075 37.0234 73.5791 36.7549V35.4604C73.5397 35.2635 73.4788 35.0737 73.3965 34.8911C73.3177 34.7049 73.2139 34.5402 73.085 34.397C72.9596 34.2502 72.8039 34.1338 72.6177 34.0479C72.4315 33.9619 72.2131 33.9189 71.9624 33.9189C71.6903 33.9189 71.4557 33.9762 71.2588 34.0908C71.0654 34.2018 70.9061 34.3558 70.7808 34.5527C70.659 34.7461 70.5677 34.9717 70.5068 35.2295C70.4495 35.4837 70.4209 35.7559 70.4209 36.0459ZM83.8271 34.542V35.3853H79.5947V34.542H83.8271ZM79.7559 31.1797V39H78.7192V31.1797H79.7559ZM84.7295 31.1797V39H83.6982V31.1797H84.7295ZM89.8481 38.0063V35.0146C89.8481 34.7855 89.8016 34.5868 89.7085 34.4185C89.619 34.2466 89.4829 34.1141 89.3003 34.021C89.1177 33.9279 88.8921 33.8813 88.6235 33.8813C88.3729 33.8813 88.1527 33.9243 87.9629 34.0103C87.7767 34.0962 87.6299 34.209 87.5225 34.3486C87.4186 34.4883 87.3667 34.6387 87.3667 34.7998H86.373C86.373 34.5921 86.4268 34.3862 86.5342 34.1821C86.6416 33.978 86.7956 33.7936 86.9961 33.6289C87.2002 33.4606 87.4437 33.3281 87.7266 33.2314C88.013 33.1312 88.3317 33.0811 88.6826 33.0811C89.1051 33.0811 89.4775 33.1527 89.7998 33.2959C90.1257 33.4391 90.3799 33.6558 90.5625 33.9458C90.7487 34.2323 90.8418 34.5921 90.8418 35.0254V37.7324C90.8418 37.9258 90.8579 38.1317 90.8901 38.3501C90.9259 38.5685 90.9779 38.7565 91.0459 38.9141V39H90.0093C89.9591 38.8854 89.9198 38.7332 89.8911 38.5435C89.8625 38.3501 89.8481 38.1711 89.8481 38.0063ZM90.02 35.4766L90.0308 36.1748H89.0264C88.7435 36.1748 88.491 36.1981 88.269 36.2446C88.047 36.2876 87.8608 36.3538 87.7104 36.4434C87.5601 36.5329 87.4455 36.6457 87.3667 36.7817C87.2879 36.9142 87.2485 37.07 87.2485 37.249C87.2485 37.4316 87.2897 37.5981 87.3721 37.7485C87.4544 37.8989 87.578 38.0189 87.7427 38.1084C87.911 38.1943 88.1169 38.2373 88.3604 38.2373C88.6647 38.2373 88.9333 38.1729 89.166 38.0439C89.3988 37.915 89.5832 37.7575 89.7192 37.5713C89.8589 37.3851 89.9341 37.2043 89.9448 37.0288L90.3691 37.5068C90.3441 37.6572 90.276 37.8237 90.165 38.0063C90.054 38.189 89.9054 38.3644 89.7192 38.5327C89.5366 38.6974 89.3182 38.8353 89.064 38.9463C88.8133 39.0537 88.5304 39.1074 88.2153 39.1074C87.8215 39.1074 87.4759 39.0304 87.1787 38.8765C86.8851 38.7225 86.6559 38.5166 86.4912 38.2588C86.3301 37.9974 86.2495 37.7056 86.2495 37.3833C86.2495 37.0718 86.3104 36.7979 86.4321 36.5615C86.5539 36.3216 86.7293 36.1229 86.9585 35.9653C87.1877 35.8042 87.4634 35.6825 87.7856 35.6001C88.1079 35.5177 88.4678 35.4766 88.8652 35.4766H90.02ZM93.3984 34.3057V41.2344H92.3994V33.1885H93.3125L93.3984 34.3057ZM97.314 36.0459V36.1587C97.314 36.5812 97.2638 36.9733 97.1636 37.335C97.0633 37.693 96.9165 38.0046 96.7231 38.2695C96.5334 38.5345 96.2988 38.7404 96.0195 38.8872C95.7402 39.034 95.4198 39.1074 95.0581 39.1074C94.6893 39.1074 94.3634 39.0465 94.0806 38.9248C93.7977 38.8031 93.5578 38.6258 93.3608 38.3931C93.1639 38.1603 93.0063 37.881 92.8882 37.5552C92.7736 37.2293 92.6948 36.8623 92.6519 36.4541V35.8525C92.6948 35.4229 92.7754 35.0379 92.8936 34.6978C93.0117 34.3576 93.1675 34.0675 93.3608 33.8276C93.5578 33.5841 93.7959 33.3997 94.0752 33.2744C94.3545 33.1455 94.6768 33.0811 95.042 33.0811C95.4072 33.0811 95.7313 33.1527 96.0142 33.2959C96.297 33.4355 96.5352 33.6361 96.7285 33.8975C96.9219 34.1589 97.0669 34.4722 97.1636 34.8374C97.2638 35.1991 97.314 35.6019 97.314 36.0459ZM96.3149 36.1587V36.0459C96.3149 35.7559 96.2845 35.4837 96.2236 35.2295C96.1628 34.9717 96.0679 34.7461 95.939 34.5527C95.8136 34.3558 95.6525 34.2018 95.4556 34.0908C95.2586 33.9762 95.0241 33.9189 94.752 33.9189C94.5013 33.9189 94.2829 33.9619 94.0967 34.0479C93.9141 34.1338 93.7583 34.2502 93.6294 34.397C93.5005 34.5402 93.3949 34.7049 93.3125 34.8911C93.2337 35.0737 93.1746 35.2635 93.1353 35.4604V36.8516C93.2069 37.1022 93.3071 37.3385 93.436 37.5605C93.5649 37.779 93.7368 37.9562 93.9517 38.0923C94.1665 38.2248 94.4368 38.291 94.7627 38.291C95.0312 38.291 95.2622 38.2355 95.4556 38.1245C95.6525 38.0099 95.8136 37.8542 95.939 37.6572C96.0679 37.4603 96.1628 37.2347 96.2236 36.9805C96.2845 36.7227 96.3149 36.4487 96.3149 36.1587ZM99.5752 34.3057V41.2344H98.5762V33.1885H99.4893L99.5752 34.3057ZM103.491 36.0459V36.1587C103.491 36.5812 103.441 36.9733 103.34 37.335C103.24 37.693 103.093 38.0046 102.9 38.2695C102.71 38.5345 102.476 38.7404 102.196 38.8872C101.917 39.034 101.597 39.1074 101.235 39.1074C100.866 39.1074 100.54 39.0465 100.257 38.9248C99.9744 38.8031 99.7345 38.6258 99.5376 38.3931C99.3407 38.1603 99.1831 37.881 99.0649 37.5552C98.9504 37.2293 98.8716 36.8623 98.8286 36.4541V35.8525C98.8716 35.4229 98.9521 35.0379 99.0703 34.6978C99.1885 34.3576 99.3442 34.0675 99.5376 33.8276C99.7345 33.5841 99.9727 33.3997 100.252 33.2744C100.531 33.1455 100.854 33.0811 101.219 33.0811C101.584 33.0811 101.908 33.1527 102.191 33.2959C102.474 33.4355 102.712 33.6361 102.905 33.8975C103.099 34.1589 103.244 34.4722 103.34 34.8374C103.441 35.1991 103.491 35.6019 103.491 36.0459ZM102.492 36.1587V36.0459C102.492 35.7559 102.461 35.4837 102.4 35.2295C102.34 34.9717 102.245 34.7461 102.116 34.5527C101.99 34.3558 101.829 34.2018 101.632 34.0908C101.435 33.9762 101.201 33.9189 100.929 33.9189C100.678 33.9189 100.46 33.9619 100.273 34.0479C100.091 34.1338 99.9351 34.2502 99.8062 34.397C99.6772 34.5402 99.5716 34.7049 99.4893 34.8911C99.4105 35.0737 99.3514 35.2635 99.312 35.4604V36.8516C99.3836 37.1022 99.4839 37.3385 99.6128 37.5605C99.7417 37.779 99.9136 37.9562 100.128 38.0923C100.343 38.2248 100.614 38.291 100.939 38.291C101.208 38.291 101.439 38.2355 101.632 38.1245C101.829 38.0099 101.99 37.8542 102.116 37.6572C102.245 37.4603 102.34 37.2347 102.4 36.9805C102.461 36.7227 102.492 36.4487 102.492 36.1587ZM105.838 33.1885V39H104.839V33.1885H105.838ZM104.764 31.647C104.764 31.4858 104.812 31.3498 104.909 31.2388C105.009 31.1278 105.156 31.0723 105.349 31.0723C105.539 31.0723 105.684 31.1278 105.784 31.2388C105.888 31.3498 105.94 31.4858 105.94 31.647C105.94 31.8009 105.888 31.9334 105.784 32.0444C105.684 32.1519 105.539 32.2056 105.349 32.2056C105.156 32.2056 105.009 32.1519 104.909 32.0444C104.812 31.9334 104.764 31.8009 104.764 31.647ZM108.427 34.4292V39H107.433V33.1885H108.373L108.427 34.4292ZM108.19 35.874L107.777 35.8579C107.78 35.4604 107.84 35.0934 107.954 34.7568C108.069 34.4167 108.23 34.1213 108.438 33.8706C108.645 33.62 108.892 33.4266 109.179 33.2905C109.469 33.1509 109.789 33.0811 110.14 33.0811C110.427 33.0811 110.684 33.1204 110.914 33.1992C111.143 33.2744 111.338 33.3962 111.499 33.5645C111.664 33.7327 111.789 33.9512 111.875 34.2197C111.961 34.4847 112.004 34.8088 112.004 35.1919V39H111.005V35.1812C111.005 34.8768 110.96 34.6333 110.871 34.4507C110.781 34.2645 110.65 34.1302 110.479 34.0479C110.307 33.9619 110.095 33.9189 109.845 33.9189C109.598 33.9189 109.372 33.9709 109.168 34.0747C108.967 34.1785 108.794 34.3218 108.647 34.5044C108.504 34.687 108.391 34.8965 108.309 35.1328C108.23 35.3656 108.19 35.6126 108.19 35.874ZM115.925 39.1074C115.52 39.1074 115.153 39.0394 114.824 38.9033C114.498 38.7637 114.217 38.5685 113.98 38.3179C113.748 38.0672 113.569 37.77 113.443 37.4263C113.318 37.0825 113.255 36.7065 113.255 36.2983V36.0728C113.255 35.6001 113.325 35.1794 113.465 34.8105C113.604 34.4382 113.794 34.123 114.034 33.8652C114.274 33.6074 114.546 33.4123 114.851 33.2798C115.155 33.1473 115.47 33.0811 115.796 33.0811C116.211 33.0811 116.569 33.1527 116.87 33.2959C117.174 33.4391 117.423 33.6396 117.617 33.8975C117.81 34.1517 117.953 34.4525 118.046 34.7998C118.139 35.1436 118.186 35.5195 118.186 35.9277V36.3735H113.846V35.5625H117.192V35.4873C117.178 35.2295 117.124 34.9788 117.031 34.7354C116.942 34.4919 116.799 34.2913 116.602 34.1338C116.405 33.9762 116.136 33.8975 115.796 33.8975C115.57 33.8975 115.363 33.9458 115.173 34.0425C114.983 34.1356 114.82 34.2752 114.684 34.4614C114.548 34.6476 114.442 34.875 114.367 35.1436C114.292 35.4121 114.254 35.7218 114.254 36.0728V36.2983C114.254 36.5741 114.292 36.8337 114.367 37.0771C114.446 37.3171 114.559 37.5283 114.706 37.7109C114.856 37.8936 115.037 38.0368 115.248 38.1406C115.463 38.2445 115.706 38.2964 115.979 38.2964C116.329 38.2964 116.627 38.2248 116.87 38.0815C117.114 37.9383 117.327 37.7467 117.509 37.5068L118.111 37.9849C117.986 38.1746 117.826 38.3555 117.633 38.5273C117.439 38.6992 117.201 38.8389 116.918 38.9463C116.639 39.0537 116.308 39.1074 115.925 39.1074ZM122.73 37.4585C122.73 37.3153 122.698 37.1828 122.633 37.061C122.572 36.9357 122.445 36.8229 122.252 36.7227C122.062 36.6188 121.776 36.5293 121.393 36.4541C121.07 36.3861 120.778 36.3055 120.517 36.2124C120.259 36.1193 120.039 36.0065 119.856 35.874C119.677 35.7415 119.54 35.5858 119.443 35.4067C119.346 35.2277 119.298 35.0182 119.298 34.7783C119.298 34.5492 119.348 34.3325 119.448 34.1284C119.552 33.9243 119.697 33.7435 119.883 33.5859C120.073 33.4284 120.3 33.3049 120.565 33.2153C120.83 33.1258 121.126 33.0811 121.452 33.0811C121.917 33.0811 122.315 33.1634 122.644 33.3281C122.973 33.4928 123.226 33.7131 123.401 33.9888C123.577 34.2609 123.665 34.5635 123.665 34.8965H122.671C122.671 34.7354 122.623 34.5796 122.526 34.4292C122.433 34.2752 122.295 34.1481 122.112 34.0479C121.933 33.9476 121.713 33.8975 121.452 33.8975C121.176 33.8975 120.952 33.9404 120.78 34.0264C120.612 34.1087 120.488 34.2144 120.41 34.3433C120.334 34.4722 120.297 34.6082 120.297 34.7515C120.297 34.8589 120.315 34.9556 120.351 35.0415C120.39 35.1239 120.458 35.2008 120.555 35.2725C120.651 35.3405 120.787 35.4049 120.963 35.4658C121.138 35.5267 121.362 35.5876 121.634 35.6484C122.111 35.7559 122.503 35.8848 122.811 36.0352C123.118 36.1855 123.348 36.37 123.498 36.5884C123.648 36.8068 123.724 37.0718 123.724 37.3833C123.724 37.6375 123.67 37.8703 123.562 38.0815C123.459 38.2928 123.306 38.4754 123.106 38.6294C122.909 38.7798 122.673 38.8979 122.397 38.9839C122.125 39.0662 121.819 39.1074 121.479 39.1074C120.966 39.1074 120.533 39.0161 120.179 38.8335C119.824 38.6509 119.556 38.4146 119.373 38.1245C119.19 37.8345 119.099 37.5283 119.099 37.2061H120.098C120.112 37.4782 120.191 37.6948 120.334 37.856C120.478 38.0135 120.653 38.1263 120.861 38.1943C121.069 38.2588 121.274 38.291 121.479 38.291C121.751 38.291 121.978 38.2552 122.161 38.1836C122.347 38.112 122.488 38.0135 122.585 37.8882C122.682 37.7629 122.73 37.6196 122.73 37.4585ZM128.413 37.4585C128.413 37.3153 128.38 37.1828 128.316 37.061C128.255 36.9357 128.128 36.8229 127.935 36.7227C127.745 36.6188 127.458 36.5293 127.075 36.4541C126.753 36.3861 126.461 36.3055 126.2 36.2124C125.942 36.1193 125.722 36.0065 125.539 35.874C125.36 35.7415 125.222 35.5858 125.125 35.4067C125.029 35.2277 124.98 35.0182 124.98 34.7783C124.98 34.5492 125.031 34.3325 125.131 34.1284C125.235 33.9243 125.38 33.7435 125.566 33.5859C125.756 33.4284 125.983 33.3049 126.248 33.2153C126.513 33.1258 126.808 33.0811 127.134 33.0811C127.6 33.0811 127.997 33.1634 128.327 33.3281C128.656 33.4928 128.909 33.7131 129.084 33.9888C129.259 34.2609 129.347 34.5635 129.347 34.8965H128.354C128.354 34.7354 128.305 34.5796 128.208 34.4292C128.115 34.2752 127.978 34.1481 127.795 34.0479C127.616 33.9476 127.396 33.8975 127.134 33.8975C126.859 33.8975 126.635 33.9404 126.463 34.0264C126.295 34.1087 126.171 34.2144 126.092 34.3433C126.017 34.4722 125.979 34.6082 125.979 34.7515C125.979 34.8589 125.997 34.9556 126.033 35.0415C126.073 35.1239 126.141 35.2008 126.237 35.2725C126.334 35.3405 126.47 35.4049 126.646 35.4658C126.821 35.5267 127.045 35.5876 127.317 35.6484C127.793 35.7559 128.185 35.8848 128.493 36.0352C128.801 36.1855 129.03 36.37 129.181 36.5884C129.331 36.8068 129.406 37.0718 129.406 37.3833C129.406 37.6375 129.353 37.8703 129.245 38.0815C129.141 38.2928 128.989 38.4754 128.789 38.6294C128.592 38.7798 128.355 38.8979 128.08 38.9839C127.807 39.0662 127.501 39.1074 127.161 39.1074C126.649 39.1074 126.216 39.0161 125.861 38.8335C125.507 38.6509 125.238 38.4146 125.056 38.1245C124.873 37.8345 124.782 37.5283 124.782 37.2061H125.781C125.795 37.4782 125.874 37.6948 126.017 37.856C126.16 38.0135 126.336 38.1263 126.543 38.1943C126.751 38.2588 126.957 38.291 127.161 38.291C127.433 38.291 127.661 38.2552 127.843 38.1836C128.029 38.112 128.171 38.0135 128.268 37.8882C128.364 37.7629 128.413 37.6196 128.413 37.4585Z" fill="white"/>
<path d="M13.056 23C12.88 22.424 12.68 21.832 12.456 21.224C12.248 20.616 12.04 20.008 11.832 19.4H5.352C5.144 20.008 4.928 20.616 4.704 21.224C4.496 21.832 4.304 22.424 4.128 23H0.24C0.864 21.208 1.456 19.552 2.016 18.032C2.576 16.512 3.12 15.08 3.648 13.736C4.192 12.392 4.72 11.12 5.232 9.92C5.76 8.704 6.304 7.52 6.864 6.368H10.44C10.984 7.52 11.52 8.704 12.048 9.92C12.576 11.12 13.104 12.392 13.632 13.736C14.176 15.08 14.728 16.512 15.288 18.032C15.848 19.552 16.44 21.208 17.064 23H13.056ZM8.568 10.136C8.488 10.376 8.368 10.704 8.208 11.12C8.048 11.536 7.864 12.016 7.656 12.56C7.448 13.104 7.216 13.704 6.96 14.36C6.72 15.016 6.472 15.704 6.216 16.424H10.944C10.688 15.704 10.44 15.016 10.2 14.36C9.96 13.704 9.728 13.104 9.504 12.56C9.296 12.016 9.112 11.536 8.952 11.12C8.792 10.704 8.664 10.376 8.568 10.136ZM22.8353 20.432C23.4913 20.432 23.9553 20.368 24.2273 20.24C24.4993 20.112 24.6353 19.864 24.6353 19.496C24.6353 19.208 24.4593 18.96 24.1073 18.752C23.7553 18.528 23.2193 18.28 22.4993 18.008C21.9393 17.8 21.4273 17.584 20.9633 17.36C20.5153 17.136 20.1313 16.872 19.8113 16.568C19.4913 16.248 19.2433 15.872 19.0673 15.44C18.8913 15.008 18.8033 14.488 18.8033 13.88C18.8033 12.696 19.2433 11.76 20.1233 11.072C21.0033 10.384 22.2113 10.04 23.7473 10.04C24.5153 10.04 25.2513 10.112 25.9553 10.256C26.6593 10.384 27.2193 10.528 27.6353 10.688L27.0113 13.472C26.5953 13.328 26.1393 13.2 25.6433 13.088C25.1633 12.976 24.6193 12.92 24.0113 12.92C22.8913 12.92 22.3313 13.232 22.3313 13.856C22.3313 14 22.3553 14.128 22.4033 14.24C22.4513 14.352 22.5473 14.464 22.6913 14.576C22.8353 14.672 23.0273 14.784 23.2673 14.912C23.5233 15.024 23.8433 15.152 24.2273 15.296C25.0113 15.584 25.6593 15.872 26.1713 16.16C26.6833 16.432 27.0833 16.736 27.3713 17.072C27.6753 17.392 27.8833 17.752 27.9953 18.152C28.1233 18.552 28.1873 19.016 28.1873 19.544C28.1873 20.792 27.7153 21.736 26.7713 22.376C25.8433 23.016 24.5233 23.336 22.8113 23.336C21.6913 23.336 20.7553 23.24 20.0033 23.048C19.2673 22.856 18.7553 22.696 18.4673 22.568L19.0673 19.664C19.6753 19.904 20.2993 20.096 20.9393 20.24C21.5793 20.368 22.2113 20.432 22.8353 20.432ZM34.4357 14.936C34.7877 14.552 35.1477 14.152 35.5157 13.736C35.8997 13.32 36.2677 12.912 36.6197 12.512C36.9717 12.096 37.2997 11.704 37.6037 11.336C37.9237 10.968 38.1957 10.648 38.4197 10.376H42.6677C41.8197 11.352 40.9877 12.288 40.1717 13.184C39.3717 14.064 38.4917 14.976 37.5317 15.92C38.0117 16.352 38.5077 16.872 39.0197 17.48C39.5317 18.072 40.0277 18.688 40.5077 19.328C40.9877 19.968 41.4277 20.608 41.8277 21.248C42.2277 21.888 42.5637 22.472 42.8357 23H38.7317C38.4757 22.584 38.1797 22.128 37.8437 21.632C37.5237 21.12 37.1797 20.616 36.8117 20.12C36.4437 19.608 36.0517 19.12 35.6357 18.656C35.2357 18.192 34.8357 17.8 34.4357 17.48V23H30.8597V4.952L34.4357 4.376V14.936Z" fill="white"/>
<path d="M56.1581 23C55.0861 21.096 53.9261 19.216 52.6781 17.36C51.4301 15.504 50.1021 13.752 48.6941 12.104V23H44.9981V6.368H48.0461C48.5741 6.896 49.1581 7.544 49.7981 8.312C50.4381 9.08 51.0861 9.904 51.7421 10.784C52.4141 11.648 53.0781 12.552 53.7341 13.496C54.3901 14.424 55.0061 15.32 55.5821 16.184V6.368H59.3021V23H56.1581ZM67.7228 20.504C68.0748 20.504 68.4108 20.496 68.7308 20.48C69.0508 20.464 69.3068 20.44 69.4988 20.408V17.696C69.3548 17.664 69.1388 17.632 68.8508 17.6C68.5628 17.568 68.2988 17.552 68.0588 17.552C67.7228 17.552 67.4028 17.576 67.0988 17.624C66.8108 17.656 66.5548 17.728 66.3308 17.84C66.1068 17.952 65.9308 18.104 65.8028 18.296C65.6748 18.488 65.6108 18.728 65.6108 19.016C65.6108 19.576 65.7948 19.968 66.1628 20.192C66.5468 20.4 67.0668 20.504 67.7228 20.504ZM67.4348 10.04C68.4908 10.04 69.3708 10.16 70.0748 10.4C70.7788 10.64 71.3388 10.984 71.7548 11.432C72.1868 11.88 72.4908 12.424 72.6668 13.064C72.8428 13.704 72.9308 14.416 72.9308 15.2V22.64C72.4188 22.752 71.7068 22.88 70.7948 23.024C69.8828 23.184 68.7788 23.264 67.4828 23.264C66.6668 23.264 65.9228 23.192 65.2508 23.048C64.5948 22.904 64.0268 22.672 63.5468 22.352C63.0668 22.016 62.6988 21.584 62.4428 21.056C62.1868 20.528 62.0588 19.88 62.0588 19.112C62.0588 18.376 62.2028 17.752 62.4908 17.24C62.7948 16.728 63.1948 16.32 63.6908 16.016C64.1868 15.712 64.7548 15.496 65.3948 15.368C66.0348 15.224 66.6988 15.152 67.3867 15.152C67.8508 15.152 68.2588 15.176 68.6108 15.224C68.9788 15.256 69.2748 15.304 69.4988 15.368V15.032C69.4988 14.424 69.3148 13.936 68.9468 13.568C68.5788 13.2 67.9388 13.016 67.0268 13.016C66.4188 13.016 65.8188 13.064 65.2268 13.16C64.6348 13.24 64.1228 13.36 63.6908 13.52L63.2348 10.64C63.4428 10.576 63.6988 10.512 64.0028 10.448C64.3228 10.368 64.6668 10.304 65.0348 10.256C65.4028 10.192 65.7868 10.144 66.1868 10.112C66.6028 10.064 67.0188 10.04 67.4348 10.04ZM79.2917 23C78.4757 21.4 77.6437 19.528 76.7957 17.384C75.9637 15.24 75.1717 12.904 74.4197 10.376H78.2117C78.3717 11 78.5557 11.68 78.7637 12.416C78.9877 13.136 79.2117 13.872 79.4357 14.624C79.6757 15.36 79.9077 16.08 80.1317 16.784C80.3717 17.488 80.6037 18.128 80.8277 18.704C81.0357 18.128 81.2597 17.488 81.4997 16.784C81.7397 16.08 81.9717 15.36 82.1957 14.624C82.4357 13.872 82.6597 13.136 82.8677 12.416C83.0917 11.68 83.2837 11 83.4437 10.376H87.1397C86.3877 12.904 85.5877 15.24 84.7397 17.384C83.9077 19.528 83.0837 21.4 82.2677 23H79.2917ZM92.631 23H89.055V10.376H92.631V23ZM92.967 6.728C92.967 7.384 92.751 7.904 92.319 8.288C91.903 8.656 91.407 8.84 90.831 8.84C90.255 8.84 89.751 8.656 89.319 8.288C88.903 7.904 88.695 7.384 88.695 6.728C88.695 6.072 88.903 5.56 89.319 5.192C89.751 4.808 90.255 4.616 90.831 4.616C91.407 4.616 91.903 4.808 92.319 5.192C92.751 5.56 92.967 6.072 92.967 6.728ZM99.0405 16.28C99.0405 18.28 99.8485 19.28 101.465 19.28C101.833 19.28 102.177 19.232 102.497 19.136C102.817 19.04 103.089 18.928 103.313 18.8V13.088C103.137 13.056 102.929 13.032 102.689 13.016C102.449 12.984 102.169 12.968 101.849 12.968C100.905 12.968 100.201 13.28 99.7365 13.904C99.2725 14.528 99.0405 15.32 99.0405 16.28ZM106.889 21.416C106.889 23.48 106.361 25.008 105.305 26C104.265 27.008 102.649 27.512 100.457 27.512C99.6885 27.512 98.9205 27.44 98.1525 27.296C97.3845 27.168 96.6725 26.992 96.0165 26.768L96.6405 23.768C97.2005 23.992 97.7845 24.168 98.3925 24.296C99.0165 24.424 99.7205 24.488 100.505 24.488C101.529 24.488 102.249 24.264 102.665 23.816C103.097 23.368 103.313 22.792 103.313 22.088V21.632C102.929 21.808 102.529 21.944 102.113 22.04C101.713 22.12 101.273 22.16 100.793 22.16C99.0485 22.16 97.7125 21.648 96.7845 20.624C95.8565 19.584 95.3925 18.136 95.3925 16.28C95.3925 15.352 95.5365 14.512 95.8245 13.76C96.1125 12.992 96.5285 12.336 97.0725 11.792C97.6325 11.248 98.3125 10.832 99.1125 10.544C99.9125 10.24 100.817 10.088 101.825 10.088C102.257 10.088 102.697 10.112 103.145 10.16C103.609 10.192 104.065 10.24 104.513 10.304C104.961 10.368 105.385 10.448 105.785 10.544C106.201 10.624 106.569 10.712 106.889 10.808V21.416ZM115.067 20.504C115.419 20.504 115.755 20.496 116.075 20.48C116.395 20.464 116.651 20.44 116.843 20.408V17.696C116.699 17.664 116.483 17.632 116.195 17.6C115.907 17.568 115.643 17.552 115.403 17.552C115.067 17.552 114.747 17.576 114.443 17.624C114.155 17.656 113.899 17.728 113.675 17.84C113.451 17.952 113.275 18.104 113.147 18.296C113.019 18.488 112.955 18.728 112.955 19.016C112.955 19.576 113.139 19.968 113.507 20.192C113.891 20.4 114.411 20.504 115.067 20.504ZM114.779 10.04C115.835 10.04 116.715 10.16 117.419 10.4C118.123 10.64 118.683 10.984 119.099 11.432C119.531 11.88 119.835 12.424 120.011 13.064C120.187 13.704 120.275 14.416 120.275 15.2V22.64C119.763 22.752 119.051 22.88 118.139 23.024C117.227 23.184 116.123 23.264 114.827 23.264C114.011 23.264 113.267 23.192 112.595 23.048C111.939 22.904 111.371 22.672 110.891 22.352C110.411 22.016 110.043 21.584 109.787 21.056C109.531 20.528 109.403 19.88 109.403 19.112C109.403 18.376 109.547 17.752 109.835 17.24C110.139 16.728 110.539 16.32 111.035 16.016C111.531 15.712 112.099 15.496 112.739 15.368C113.379 15.224 114.043 15.152 114.73 15.152C115.195 15.152 115.603 15.176 115.955 15.224C116.323 15.256 116.619 15.304 116.843 15.368V15.032C116.843 14.424 116.659 13.936 116.291 13.568C115.923 13.2 115.283 13.016 114.371 13.016C113.763 13.016 113.163 13.064 112.571 13.16C111.979 13.24 111.467 13.36 111.035 13.52L110.579 10.64C110.787 10.576 111.043 10.512 111.347 10.448C111.667 10.368 112.011 10.304 112.379 10.256C112.747 10.192 113.131 10.144 113.531 10.112C113.947 10.064 114.363 10.04 114.779 10.04ZM123.388 7.232L126.964 6.656V10.376H131.26V13.352H126.964V17.792C126.964 18.544 127.092 19.144 127.348 19.592C127.62 20.04 128.156 20.264 128.956 20.264C129.34 20.264 129.732 20.232 130.132 20.168C130.548 20.088 130.924 19.984 131.26 19.856L131.764 22.64C131.332 22.816 130.852 22.968 130.324 23.096C129.796 23.224 129.148 23.288 128.38 23.288C127.404 23.288 126.596 23.16 125.956 22.904C125.316 22.632 124.804 22.264 124.42 21.8C124.036 21.32 123.764 20.744 123.604 20.072C123.46 19.4 123.388 18.656 123.388 17.84V7.232ZM145.511 16.664C145.511 17.656 145.367 18.568 145.079 19.4C144.791 20.216 144.375 20.92 143.831 21.512C143.287 22.088 142.631 22.536 141.863 22.856C141.111 23.176 140.263 23.336 139.319 23.336C138.391 23.336 137.543 23.176 136.775 22.856C136.023 22.536 135.375 22.088 134.831 21.512C134.287 20.92 133.863 20.216 133.559 19.4C133.255 18.568 133.103 17.656 133.103 16.664C133.103 15.672 133.255 14.768 133.559 13.952C133.879 13.136 134.311 12.44 134.855 11.864C135.415 11.288 136.071 10.84 136.823 10.52C137.591 10.2 138.423 10.04 139.319 10.04C140.231 10.04 141.063 10.2 141.815 10.52C142.583 10.84 143.239 11.288 143.783 11.864C144.327 12.44 144.751 13.136 145.055 13.952C145.359 14.768 145.511 15.672 145.511 16.664ZM141.863 16.664C141.863 15.56 141.639 14.696 141.191 14.072C140.759 13.432 140.135 13.112 139.319 13.112C138.503 13.112 137.871 13.432 137.423 14.072C136.975 14.696 136.751 15.56 136.751 16.664C136.751 17.768 136.975 18.648 137.423 19.304C137.871 19.944 138.503 20.264 139.319 20.264C140.135 20.264 140.759 19.944 141.191 19.304C141.639 18.648 141.863 17.768 141.863 16.664ZM155.89 13.544C155.57 13.464 155.194 13.384 154.762 13.304C154.33 13.208 153.866 13.16 153.37 13.16C153.146 13.16 152.874 13.184 152.554 13.232C152.25 13.264 152.018 13.304 151.858 13.352V23H148.282V11.048C148.922 10.824 149.674 10.616 150.538 10.424C151.418 10.216 152.394 10.112 153.466 10.112C153.658 10.112 153.89 10.128 154.162 10.16C154.434 10.176 154.706 10.208 154.978 10.256C155.25 10.288 155.522 10.336 155.794 10.4C156.066 10.448 156.298 10.512 156.49 10.592L155.89 13.544Z" fill="#FF7612"/>
</svg>
