<svg width="67" height="67" viewBox="0 0 67 67" fill="none" xmlns="http://www.w3.org/2000/svg">
<circle opacity="0.15" cx="33.3209" cy="33.3209" r="33.3209" fill="#4A3AFF"/>
<path d="M48.6972 33.0132C48.0565 32.4322 47.0573 32.4702 46.3839 33.0132L41.3664 37.0264C40.7528 37.5206 39.9871 37.7867 39.1943 37.7867H32.7703C32.2924 37.7867 31.9015 37.3957 31.9015 36.9178C31.9015 36.4399 32.2924 36.0489 32.7703 36.0489H37.0222C37.8856 36.0489 38.6893 35.457 38.8305 34.6044C39.0097 33.5183 38.1734 32.5734 37.1145 32.5734H28.4261C26.9599 32.5734 25.5426 33.0784 24.4023 34.0016L21.8772 36.0489H18.8688C18.391 36.0489 18 36.4399 18 36.9178V42.1311C18 42.609 18.391 43 18.8688 43H38.244C39.0314 43 39.797 42.7339 40.4161 42.2398L48.6266 35.6688C49.452 35.0117 49.5172 33.7518 48.6972 33.0132Z" fill="#4A3AFF"/>
<path d="M37.0134 20C36.0429 20 35.0943 20.2878 34.2874 20.8269C33.4805 21.3661 32.8516 22.1324 32.4802 23.029C32.1088 23.9255 32.0116 24.9121 32.201 25.8639C32.3903 26.8157 32.8576 27.69 33.5438 28.3762C34.23 29.0624 35.1043 29.5297 36.0561 29.7191C37.0079 29.9084 37.9945 29.8112 38.8911 29.4398C39.7876 29.0685 40.554 28.4396 41.0931 27.6327C41.6323 26.8258 41.92 25.8771 41.92 24.9067C41.92 23.6053 41.4031 22.3573 40.4829 21.4371C39.5627 20.517 38.3147 20 37.0134 20ZM38.8166 22.76H39.4667C39.548 22.76 39.626 22.7923 39.6835 22.8498C39.741 22.9073 39.7734 22.9853 39.7734 23.0667C39.7734 23.148 39.741 23.226 39.6835 23.2835C39.626 23.341 39.548 23.3733 39.4667 23.3733H38.9331V23.4316C38.9376 23.6774 38.8935 23.9216 38.8033 24.1503C38.7132 24.379 38.5788 24.5877 38.4079 24.7643C38.2369 24.9409 38.0328 25.0821 37.8072 25.1797C37.5815 25.2773 37.3389 25.3293 37.0931 25.3329H36.4798L38.5712 27.8047C38.6371 27.8823 38.6694 27.983 38.6611 28.0845C38.6528 28.186 38.6044 28.2801 38.5268 28.3459C38.4491 28.4118 38.3484 28.4441 38.2469 28.4358C38.1454 28.4275 38.0514 28.3791 37.9855 28.3015L35.3666 25.1949C35.3182 25.1382 35.2875 25.0687 35.278 24.9948C35.2686 24.9209 35.2809 24.8459 35.3134 24.7788C35.346 24.7118 35.3973 24.6557 35.4612 24.6174C35.5251 24.5791 35.5988 24.5603 35.6732 24.5632H37.1176C37.4091 24.5544 37.6852 24.4303 37.8853 24.2181C38.0853 24.006 38.1931 23.7231 38.1848 23.4316V23.3703H35.4248C35.3435 23.3703 35.2655 23.338 35.208 23.2804C35.1505 23.2229 35.1182 23.1449 35.1182 23.0636C35.1182 22.9823 35.1505 22.9043 35.208 22.8468C35.2655 22.7892 35.3435 22.7569 35.4248 22.7569H37.9763C37.8818 22.6172 37.755 22.5024 37.6065 22.4223C37.4581 22.3422 37.2924 22.2992 37.1238 22.2969H35.4034C35.3017 22.2969 35.2042 22.2565 35.1323 22.1847C35.0604 22.1128 35.02 22.0153 35.02 21.9136C35.02 21.8119 35.0604 21.7144 35.1323 21.6425C35.2042 21.5707 35.3017 21.5303 35.4034 21.5303H39.4667C39.548 21.5303 39.626 21.5626 39.6835 21.6201C39.741 21.6776 39.7734 21.7556 39.7734 21.8369C39.7734 21.9183 39.741 21.9963 39.6835 22.0538C39.626 22.1113 39.548 22.1436 39.4667 22.1436H38.4486C38.6091 22.324 38.7339 22.5331 38.8166 22.76Z" fill="#4A3AFF"/>
</svg>
