<svg width="30" height="30" viewBox="0 0 30 30" fill="none" xmlns="http://www.w3.org/2000/svg">
<rect width="30" height="30" rx="5" fill="#171C9B"/>
<path d="M6.89978 16.7948H8.6998V23.0993C8.6998 23.3382 8.79462 23.5673 8.96341 23.7362C9.13219 23.9051 9.36112 24 9.59981 24H20.4C20.6387 24 20.8676 23.9051 21.0364 23.7362C21.2052 23.5673 21.3 23.3382 21.3 23.0993V16.7948H23.1C23.2739 16.7949 23.4442 16.7445 23.59 16.6497C23.7359 16.5549 23.8511 16.4198 23.9217 16.2607C23.9928 16.1017 24.0162 15.9255 23.989 15.7534C23.9618 15.5814 23.8853 15.4209 23.7687 15.2916L15.6686 6.28506C15.3275 5.90498 14.6723 5.90498 14.3312 6.28506L6.23107 15.2916C6.11469 15.421 6.03827 15.5813 6.01107 15.7533C5.98387 15.9252 6.00705 16.1014 6.07779 16.2604C6.14854 16.4195 6.26383 16.5546 6.40972 16.6494C6.5556 16.7442 6.72582 16.7947 6.89978 16.7948V16.7948ZM11.9875 14.6701C12.3622 14.3 12.8674 14.0925 13.3938 14.0925C13.9202 14.0925 14.4255 14.3 14.8001 14.6701L15.0017 14.8683L15.2024 14.6701C15.5772 14.3 16.0825 14.0924 16.6091 14.0924C17.1357 14.0924 17.6411 14.3 18.0158 14.6701C18.2018 14.8491 18.3497 15.0638 18.4507 15.3014C18.5517 15.5389 18.6038 15.7945 18.6038 16.0526C18.6038 16.3108 18.5517 16.5663 18.4507 16.8039C18.3497 17.0414 18.2018 17.2561 18.0158 17.4351L15.0017 20.3974L11.9875 17.4351C11.8016 17.2561 11.6537 17.0414 11.5527 16.8039C11.4517 16.5663 11.3996 16.3108 11.3996 16.0526C11.3996 15.7945 11.4517 15.5389 11.5527 15.3014C11.6537 15.0638 11.8016 14.8491 11.9875 14.6701V14.6701Z" fill="white"/>
</svg>
