<svg width="28" height="29" viewBox="0 0 28 29" fill="none" xmlns="http://www.w3.org/2000/svg">
<path d="M27.7957 26.2479L25.8459 20.3H23.7063L24.8945 26.1H3.97541L5.16357 20.3H3.02402L1.07275 26.2479C0.577806 27.7617 1.45502 29 3.02402 29H25.8459C27.4149 29 28.2921 27.7617 27.7957 26.2479ZM21.5668 7.25C21.5668 5.32718 20.8154 3.48311 19.4779 2.12348C18.1404 0.763837 16.3264 0 14.4349 0C12.5435 0 10.7295 0.763837 9.39198 2.12348C8.05451 3.48311 7.30312 5.32718 7.30312 7.25C7.30312 14.1738 14.4349 21.75 14.4349 21.75C14.4349 21.75 21.5668 14.1738 21.5668 7.25ZM10.5838 7.337C10.5838 5.17505 12.3068 3.42345 14.4349 3.42345C15.4562 3.42345 16.4355 3.83585 17.1576 4.56991C17.8797 5.30398 18.2854 6.2996 18.2854 7.33773C18.2854 8.37586 17.8797 9.37147 17.1576 10.1055C16.4355 10.8396 15.4562 11.252 14.4349 11.252C13.4136 11.252 12.434 10.8395 11.7117 10.1053C10.9895 9.37112 10.5838 8.37532 10.5838 7.337Z" fill="white"/>
</svg>
