<svg width="24" height="24" viewBox="0 0 24 24" fill="none" xmlns="http://www.w3.org/2000/svg">
<path d="M5.1 4.2C4.86131 4.2 4.63239 4.29482 4.4636 4.4636C4.29482 4.63239 4.2 4.86131 4.2 5.1V6.3C4.19992 6.4592 4.24208 6.61557 4.32216 6.75316C4.40224 6.89075 4.51739 7.00464 4.65585 7.0832C4.79432 7.16177 4.95114 7.2022 5.11033 7.20037C5.26952 7.19854 5.42538 7.15452 5.562 7.0728C5.2912 7.66295 4.91964 8.2014 4.464 8.664C4.37558 8.7464 4.30465 8.84576 4.25546 8.95615C4.20627 9.06655 4.17982 9.18573 4.17769 9.30657C4.17556 9.42742 4.19779 9.54745 4.24305 9.65952C4.28832 9.77158 4.35569 9.87338 4.44115 9.95885C4.52662 10.0443 4.62842 10.1117 4.74048 10.1569C4.85255 10.2022 4.97258 10.2244 5.09343 10.2223C5.21427 10.2202 5.33345 10.1937 5.44385 10.1445C5.55424 10.0953 5.65361 10.0244 5.736 9.936C6.2544 9.42 7.8 7.6812 7.8 5.1C7.8 4.86131 7.70518 4.63239 7.5364 4.4636C7.36761 4.29482 7.1387 4.2 6.9 4.2H5.1ZM9.9 4.2C9.66131 4.2 9.43239 4.29482 9.26361 4.4636C9.09482 4.63239 9 4.86131 9 5.1V6.3C8.99992 6.4592 9.04208 6.61557 9.12216 6.75316C9.20224 6.89075 9.31739 7.00464 9.45585 7.0832C9.59432 7.16177 9.75114 7.2022 9.91033 7.20037C10.0695 7.19854 10.2254 7.15452 10.362 7.0728C10.0912 7.66295 9.71964 8.2014 9.264 8.664C9.17558 8.7464 9.10465 8.84576 9.05546 8.95615C9.00627 9.06655 8.97982 9.18573 8.97769 9.30657C8.97556 9.42742 8.99779 9.54745 9.04305 9.65952C9.08832 9.77158 9.15569 9.87338 9.24115 9.95885C9.32662 10.0443 9.42842 10.1117 9.54048 10.1569C9.65255 10.2022 9.77258 10.2244 9.89343 10.2223C10.0143 10.2202 10.1334 10.1937 10.2438 10.1445C10.3542 10.0953 10.4536 10.0244 10.536 9.936C11.0544 9.4188 12.6 7.6812 12.6 5.1C12.6 4.86131 12.5052 4.63239 12.3364 4.4636C12.1676 4.29482 11.9387 4.2 11.7 4.2H9.9ZM0 2.7C0 1.98392 0.284463 1.29716 0.790812 0.790812C1.29716 0.284463 1.98392 0 2.7 0H13.5C14.2161 0 14.9028 0.284463 15.4092 0.790812C15.9155 1.29716 16.2 1.98392 16.2 2.7V11.7C16.2 12.4161 15.9155 13.1028 15.4092 13.6092C14.9028 14.1155 14.2161 14.4 13.5 14.4H11.1696L8.8968 18.72C8.8205 18.8653 8.70594 18.9869 8.5655 19.0718C8.42506 19.1567 8.26409 19.2015 8.1 19.2015C7.93591 19.2015 7.77494 19.1567 7.6345 19.0718C7.49406 18.9869 7.3795 18.8653 7.3032 18.72L5.0304 14.4H2.7C1.98392 14.4 1.29716 14.1155 0.790812 13.6092C0.284463 13.1028 0 12.4161 0 11.7V2.7ZM2.7 1.8C2.46131 1.8 2.23239 1.89482 2.0636 2.0636C1.89482 2.23239 1.8 2.46131 1.8 2.7V11.7C1.8 12.1968 2.2032 12.6 2.7 12.6H5.574C5.73773 12.6001 5.89834 12.6448 6.03854 12.7294C6.17873 12.814 6.29319 12.9352 6.3696 13.08L8.1 16.368L9.8292 13.08C9.9057 12.935 10.0204 12.8137 10.1608 12.7291C10.3012 12.6445 10.4621 12.5999 10.626 12.6H13.5C13.7387 12.6 13.9676 12.5052 14.1364 12.3364C14.3052 12.1676 14.4 11.9387 14.4 11.7V2.7C14.4 2.46131 14.3052 2.23239 14.1364 2.0636C13.9676 1.89482 13.7387 1.8 13.5 1.8H2.7ZM5.2536 17.4H0.9C0.661305 17.4 0.432387 17.4948 0.263604 17.6636C0.094821 17.8324 0 18.0613 0 18.3C0 18.5387 0.094821 18.7676 0.263604 18.9364C0.432387 19.1052 0.661305 19.2 0.9 19.2H6.2004L5.2524 17.4H5.2536ZM9.9996 19.2H23.1C23.3387 19.2 23.5676 19.1052 23.7364 18.9364C23.9052 18.7676 24 18.5387 24 18.3C24 18.0613 23.9052 17.8324 23.7364 17.6636C23.5676 17.4948 23.3387 17.4 23.1 17.4H10.9464L9.9984 19.2H9.9996ZM0.9 22.2C0.661305 22.2 0.432387 22.2948 0.263604 22.4636C0.094821 22.6324 0 22.8613 0 23.1C0 23.3387 0.094821 23.5676 0.263604 23.7364C0.432387 23.9052 0.661305 24 0.9 24H15.3C15.5387 24 15.7676 23.9052 15.9364 23.7364C16.1052 23.5676 16.2 23.3387 16.2 23.1C16.2 22.8613 16.1052 22.6324 15.9364 22.4636C15.7676 22.2948 15.5387 22.2 15.3 22.2H0.9Z" fill="#4A3AFF"/>
</svg>
