<svg width="29" height="31" viewBox="0 0 29 31" fill="none" xmlns="http://www.w3.org/2000/svg">
<path d="M14.5001 0.133789C6.52727 0.133789 0.0626221 6.82136 0.0626221 15.0691C0.0626221 23.3169 6.52727 30.0045 14.5001 30.0045C22.473 30.0045 28.9376 23.3169 28.9376 15.0691C28.9376 6.82136 22.473 0.133789 14.5001 0.133789ZM21.4385 11.392C21.4482 11.5487 21.4482 11.712 21.4482 11.872C21.4482 16.766 17.8452 22.4035 11.2614 22.4035C9.23108 22.4035 7.34905 21.7934 5.7635 20.7432C6.05354 20.7766 6.33069 20.7899 6.62717 20.7899C8.30296 20.7899 9.84339 20.2032 11.0712 19.2097C9.49856 19.1764 8.17727 18.1095 7.7261 16.6427C8.27717 16.726 8.77346 16.726 9.34065 16.576C8.53088 16.4058 7.80304 15.9509 7.28078 15.2884C6.75852 14.626 6.47405 13.797 6.47571 12.9422V12.8955C6.94944 13.1722 7.50696 13.3422 8.09026 13.3656C7.59991 13.0275 7.19777 12.5695 6.9195 12.0322C6.64124 11.4948 6.49544 10.8947 6.49504 10.2852C6.49504 9.59506 6.66907 8.96498 6.98167 8.41824C7.88047 9.56285 9.00205 10.499 10.2735 11.1658C11.5449 11.8327 12.9378 12.2153 14.3615 12.2888C13.8556 9.77175 15.6732 7.73481 17.8581 7.73481C18.8894 7.73481 19.8175 8.18154 20.4717 8.90164C21.2806 8.74495 22.054 8.43157 22.7437 8.01152C22.4762 8.8683 21.9155 9.59173 21.171 10.0485C21.8929 9.96845 22.589 9.76175 23.2335 9.47171C22.7469 10.2118 22.1378 10.8686 21.4385 11.392V11.392Z" fill="white"/>
</svg>
